<?xml version="1.0" encoding="UTF-8" standalone="no"?>
<!-- Created with Inkscape (http://www.inkscape.org/) -->

<svg
   width="210mm"
   height="297mm"
   viewBox="0 0 210 297"
   version="1.1"
   id="svg1028"
   inkscape:version="1.1.2 (b8e25be8, 2022-02-05)"
   sodipodi:docname="pride flag.svg"
   xmlns:inkscape="http://www.inkscape.org/namespaces/inkscape"
   xmlns:sodipodi="http://sodipodi.sourceforge.net/DTD/sodipodi-0.dtd"
   xmlns="http://www.w3.org/2000/svg"
   xmlns:svg="http://www.w3.org/2000/svg">
  <sodipodi:namedview
     id="namedview1030"
     pagecolor="#ffffff"
     bordercolor="#666666"
     borderopacity="1.0"
     inkscape:pageshadow="2"
     inkscape:pageopacity="0.0"
     inkscape:pagecheckerboard="0"
     inkscape:document-units="mm"
     showgrid="false"
     inkscape:zoom="0.4944234"
     inkscape:cx="396.42137"
     inkscape:cy="561.25984"
     inkscape:window-width="1302"
     inkscape:window-height="619"
     inkscape:window-x="0"
     inkscape:window-y="25"
     inkscape:window-maximized="0"
     inkscape:current-layer="layer1" />
  <defs
     id="defs1025" />
  <g
     inkscape:label="Layer 1"
     inkscape:groupmode="layer"
     id="layer1">
    <path
       id="rect4644"
       style="fill:#ff0000;fill-rule:evenodd;stroke-width:0.00326999;paint-order:markers fill stroke;stop-color:#000000"
       d="M 21.140389,89.603924 41.205315,103.43874 H 154.38393 V 89.603924 Z"
       sodipodi:nodetypes="ccccc" />
    <path
       id="rect4644-4"
       style="fill:#ff6600;fill-rule:evenodd;stroke-width:0.00326999;paint-order:markers fill stroke;stop-color:#000000"
       d="m 41.205315,103.43874 20.065441,13.83481 h 93.113174 v -13.83481 z"
       sodipodi:nodetypes="ccccc" />
    <path
       id="rect4644-8"
       style="fill:#ffff00;fill-rule:evenodd;stroke-width:0.00326999;paint-order:markers fill stroke;stop-color:#000000"
       d="m 61.270756,117.27355 20.064926,13.83482 h 73.048248 v -13.83482 z"
       sodipodi:nodetypes="ccccc" />
    <path
       id="rect4644-4-0"
       style="fill:#00ff00;fill-rule:evenodd;stroke-width:0.00326999;paint-order:markers fill stroke;stop-color:#000000"
       d="M 81.335682,131.10837 61.271275,144.94266 H 154.38393 V 131.10837 Z"
       sodipodi:nodetypes="ccccc" />
    <path
       id="rect4644-46"
       style="fill:#000080;fill-rule:evenodd;stroke-width:0.00326999;paint-order:markers fill stroke;stop-color:#000000"
       d="M 61.271275,144.94266 41.205831,158.77748 H 154.38393 v -13.83482 z"
       sodipodi:nodetypes="ccccc" />
    <path
       id="rect4644-4-03"
       style="fill:#800080;fill-rule:evenodd;stroke-width:0.00326999;paint-order:markers fill stroke;stop-color:#000000"
       d="M 41.205831,158.77748 21.140389,172.61229 H 154.38393 v -13.83481 z"
       sodipodi:nodetypes="ccccc" />
    <path
       id="rect4916-8"
       style="fill:#000000;fill-rule:evenodd;stroke-width:0.0023884;paint-order:markers fill stroke;stop-color:#000000"
       d="m 21.140908,89.60444 v 11.08511 l 44.124953,30.41778 -44.124953,30.41985 v 11.08511 l 60.194774,-41.50392 z"
       sodipodi:nodetypes="ccccccc" />
    <path
       id="rect4916-8-6-7"
       style="fill:#784421;fill-rule:evenodd;stroke-width:0.0023884;paint-order:markers fill stroke;stop-color:#000000"
       d="m 21.140908,100.68955 v 10.07794 l 29.507759,20.33984 c -9.835938,6.7806 -19.671823,13.56132 -29.507759,20.34191 v 10.07794 l 44.124953,-30.41985 z"
       sodipodi:nodetypes="ccccccc" />
    <path
       id="rect4916-8-6-7-1-8"
       style="fill:#00ffff;fill-rule:evenodd;stroke-width:0.0023884;paint-order:markers fill stroke;stop-color:#000000"
       d="m 21.140908,110.76749 v 10.07794 c 4.96289,3.42057 9.925605,6.84133 14.888495,10.2619 -4.96289,3.42123 -9.925605,6.84224 -14.888495,10.26346 v 10.07845 c 9.835936,-6.78059 19.671821,-13.56131 29.507759,-20.34191 z" />
    <path
       id="rect4916-8-6-7-1-8-7-4"
       style="fill:#ffaaaa;fill-rule:evenodd;stroke-width:0.0023884;paint-order:markers fill stroke;stop-color:#000000"
       d="m 21.140908,120.84543 v 7.12308 c 1.518385,1.04652 3.036893,2.09282 4.555276,3.13934 -1.518383,1.04672 -3.036891,2.09315 -4.555276,3.13986 v 7.12308 c 4.96289,-3.42122 9.925605,-6.84223 14.888495,-10.26346 -4.96289,-3.42057 -9.925605,-6.84133 -14.888495,-10.2619 z" />
    <path
       id="rect4916-8-6-7-1-8-7-4-7-6"
       style="fill:#f2f2f2;fill-rule:evenodd;stroke-width:0.000730726;paint-order:markers fill stroke;stop-color:#000000"
       d="m 21.141028,134.24799 4.555156,-3.14014 -4.555156,-3.13956 z"
       sodipodi:nodetypes="cccc" />
  </g>
</svg>
