<?xml version="1.0" encoding="utf-8"?>
<!-- Generator: Adobe Illustrator 27.5.0, SVG Export Plug-In . SVG Version: 6.00 Build 0)  -->
<svg version="1.1" xmlns="http://www.w3.org/2000/svg" xmlns:xlink="http://www.w3.org/1999/xlink" x="0px" y="0px"
	 viewBox="0 0 500 500" style="enable-background:new 0 0 500 500;" xml:space="preserve">
<g id="Background">
	<rect style="fill:#FFFFFF;" width="500" height="500"/>
</g>
<g id="Objects">
	<g>
		<g>
			<g>
				<path style="fill:#7ECCED;" d="M31.333,252c0-119.109,96.557-215.667,215.668-215.667c119.108,0,215.665,96.558,215.665,215.667
					c0,119.109-96.557,215.667-215.665,215.667C127.891,467.667,31.333,371.109,31.333,252"/>
				<path style="fill:#6692D8;" d="M445.112,311.327c-101.65-4.419-247.294-9.258-405.295,0.729
					c26.01,89.886,108.917,155.61,207.183,155.61c98.368,0,181.348-65.861,207.267-155.89
					C451.167,311.609,448.09,311.457,445.112,311.327"/>
			</g>
			<g>
				<path style="fill:#F9FBFC;" d="M146.528,336.298c2.006-0.402,4.663-0.898,7.327-1.178c2.662-0.281,4.029-0.362,4.729-0.527
					c0.701-0.152,0.737-0.355,0.749-0.593c0.011-0.232-0.021-0.457-0.749-0.614c-0.727-0.143-2.16-0.252-4.913,0.038
					c-2.753,0.288-5.511,0.945-7.513,1.641c-2.005,0.702-3.255,1.401-3.158,1.602C143.151,336.99,144.523,336.704,146.528,336.298"
					/>
				<path style="fill:#F9FBFC;" d="M125.802,340.448c-1.502,0.619-3.231,1.384-5.174,2.423c-1.933,1.049-4.117,2.327-6.336,4.207
					c-2.179,1.873-4.253,4.215-5.041,7.203c-0.392,1.472-0.411,3.04-0.077,4.497c0.332,1.462,0.993,2.798,1.805,3.954
					c1.661,2.301,3.781,3.986,5.865,5.379c2.104,1.375,4.211,2.455,6.192,3.355c3.974,1.781,7.441,2.86,9.874,3.526
					c2.437,0.658,3.856,0.88,3.839,0.757c-0.023-0.184-1.422-0.665-3.793-1.532c-2.363-0.876-5.721-2.111-9.519-3.985
					c-1.892-0.945-3.901-2.043-5.863-3.405c-1.948-1.364-3.888-2.998-5.31-5.058c-1.425-2.041-2.076-4.625-1.385-7.069
					c0.653-2.455,2.474-4.575,4.52-6.323c2.071-1.758,4.167-3.003,6.024-4.036c1.868-1.024,3.542-1.802,4.994-2.446
					c2.914-1.272,4.944-2.022,6.31-2.553c2.742-1.036,2.837-1.227,2.773-1.467c-0.056-0.215-0.267-0.435-3.147,0.32
					C130.917,338.587,128.813,339.228,125.802,340.448"/>
				<path style="fill:#F9FBFC;" d="M152.083,359.241c-0.769-0.68-1.55-1.513-1.888-2.285c-0.331-0.746-0.131-1.427,0.279-2.037
					c0.413-0.599,0.937-1.063,1.387-1.453c0.945-0.755,1.678-1.2,2.151-1.532c0.968-0.643,0.951-0.832,0.863-1.059
					c-0.083-0.212-0.232-0.418-1.405-0.02c-0.58,0.216-1.424,0.57-2.562,1.36c-0.555,0.421-1.205,0.928-1.811,1.757
					c-0.134,0.227-0.272,0.463-0.415,0.707c-0.102,0.277-0.216,0.565-0.291,0.876c-0.108,0.644-0.079,1.399,0.227,2.051
					c0.596,1.302,1.48,2.115,2.377,2.915c0.918,0.751,1.874,1.394,2.829,1.956c1.915,1.114,3.811,1.926,5.467,2.53
					c3.318,1.212,5.706,1.473,5.708,1.242c0.02-0.353-2.186-1.026-5.279-2.457c-1.542-0.712-3.318-1.587-5.081-2.695
					C153.76,360.543,152.895,359.923,152.083,359.241"/>
				<path style="fill:#F9FBFC;" d="M171.5,368.625c-0.122,0.45-0.152,0.856,2.711,1.582c2.85,0.744,6.005,0.944,6.039,0.418
					c0.04-0.633-2.777-1.334-5.625-2.074C171.788,367.833,171.624,368.166,171.5,368.625"/>
				<path style="fill:#F9FBFC;" d="M234.326,387.279c4.027-0.386,4.2-0.686,4.174-0.904c-0.028-0.251-0.229-0.376-4.239-0.3
					c-4.007,0.023-11.848,0.36-27.114-0.501c-15.259-0.905-30.755-2.884-42.315-4.853c-5.78-0.995-10.582-1.991-13.909-2.777
					c-3.333-0.772-5.191-1.32-5.171-1.193c0.023,0.197,1.9,1.001,5.227,1.989c3.325,0.992,8.097,2.163,13.845,3.289
					c11.497,2.228,26.874,4.337,42.223,5.249C222.397,388.144,230.304,387.612,234.326,387.279"/>
				<path style="fill:#F9FBFC;" d="M95.53,369.97c-0.436-0.523-0.979-1.245-1.562-2.272c-1.179-2.056-1.687-4.482-1.72-6.352
					c0.005-0.467,0.004-0.899-0.007-1.287c-0.004-0.388,0.04-0.724,0.037-1.007c0.009-0.565-0.037-0.907-0.153-0.927
					c-0.169-0.027-0.37,0.269-0.595,0.823c-0.256,0.547-0.425,1.372-0.571,2.379c-0.249,2.007,0.159,4.842,1.521,7.205
					c0.669,1.181,1.335,1.972,1.894,2.503c0.553,0.538,0.992,0.836,1.311,1.004c0.646,0.326,0.817,0.155,0.94-0.039
					c0.13-0.203,0.219-0.373-0.169-0.889C96.266,370.851,95.96,370.501,95.53,369.97"/>
				<path style="fill:#F9FBFC;" d="M153.806,391.818c-1.035-0.188-2.293-0.343-3.718-0.605c-1.435-0.252-3.037-0.532-4.776-0.837
					c-6.97-1.259-16.117-3.401-24.9-6.403c-8.763-3.055-13.022-5.19-15.259-6.141c-2.22-0.999-2.396-0.918-2.528-0.707
					c-0.119,0.188-0.146,0.483,1.969,1.776c2.13,1.243,6.391,3.592,15.264,6.686c4.447,1.509,9.011,2.794,13.355,3.814
					c2.176,0.49,4.294,0.93,6.309,1.32c2.025,0.339,3.939,0.688,5.717,0.942c1.775,0.223,3.409,0.427,4.868,0.609
					c1.45,0.166,2.725,0.231,3.768,0.311c2.089,0.138,3.275,0.161,3.249,0.04C157.086,392.448,155.879,392.17,153.806,391.818"/>
				<path style="fill:#F9FBFC;" d="M270.037,398.244c-2.673,0.039-7.874,0.354-18.026,0.831
					c-10.154,0.465-20.505,0.739-28.297,0.733c-7.793,0.023-13.026-0.196-12.963,0.066c0.093,0.327,5.32,0.97,13.092,1.223
					c7.77,0.284,18.064,0.146,28.245-0.318c10.181-0.478,15.384-0.985,18.041-1.332c2.656-0.357,2.767-0.59,2.746-0.822
					C272.854,398.389,272.711,398.195,270.037,398.244"/>
				<path style="fill:#F9FBFC;" d="M323.375,379.375c-0.051-0.234-0.226-0.397-3.113,0.003c-2.893,0.359-8.486,1.419-19.484,2.763
					c-5.503,0.652-11.063,1.146-16.329,1.355c-5.294,0.228-10.279,0.672-14.507,1.26c-4.207,0.614-7.72,0.674-10.209,0.645
					c-2.479-0.014-3.893-0.032-3.856,0.1c0.055,0.162,1.501,0.44,4.011,0.662c2.492,0.249,6.135,0.331,10.362-0.147
					c4.206-0.44,9.082-0.766,14.321-0.922c5.271-0.14,10.872-0.603,16.408-1.259c11.073-1.353,16.659-2.607,19.51-3.273
					C323.332,379.856,323.424,379.601,323.375,379.375"/>
				<path style="fill:#F9FBFC;" d="M343.629,358.169c-1.54,1.11-3.402,2.071-5.284,2.942c-3.794,1.711-5.827,2.437-6.809,2.954
					c-0.993,0.496-0.98,0.707-0.911,0.935c0.068,0.224,0.188,0.418,1.298,0.209c1.103-0.234,3.225-0.785,7.136-2.549
					c1.946-0.902,3.877-1.929,5.546-3.221c0.827-0.65,1.604-1.358,2.189-2.234c0.285-0.443,0.522-0.933,0.631-1.465
					c0.107-0.531,0.077-1.105-0.11-1.573c-0.356-0.97-1.049-1.517-1.622-1.907c-0.584-0.405-1.138-0.627-1.584-0.822
					c-0.918-0.325-1.457-0.424-1.482-0.313c-0.045,0.176,0.422,0.51,1.197,1.017c0.377,0.27,0.837,0.576,1.281,0.984
					c0.239,0.189,0.41,0.441,0.626,0.671c0.075,0.127,0.151,0.257,0.23,0.39c0.086,0.128,0.086,0.275,0.144,0.409
					c0.137,0.545-0.05,1.168-0.538,1.801C345.087,357.022,344.393,357.616,343.629,358.169"/>
				<path style="fill:#F9FBFC;" d="M322.274,366.136c-2.19,0.567-4.388,1.532-4.274,1.989c0.166,0.662,2.469,0.24,4.695-0.336
					c2.227-0.577,2.18-0.96,2.055-1.414S324.467,365.567,322.274,366.136"/>
				<path style="fill:#F9FBFC;" d="M362.026,385.479c-1.992,0.474-5.808,1.632-13.322,3.622c-3.763,0.977-7.579,1.883-11.189,2.679
					c-3.616,0.753-7.018,1.444-9.962,1.9c-5.877,0.979-9.878,1.307-9.803,1.569c0.1,0.307,4.157,0.398,10.096-0.311
					c2.973-0.322,6.395-0.909,10.034-1.598c3.628-0.73,7.464-1.604,11.253-2.589c7.569-2.004,11.355-3.354,13.266-4.125
					c1.906-0.784,1.928-1.031,1.851-1.252C364.172,385.149,364.015,384.992,362.026,385.479"/>
				<path style="fill:#F9FBFC;" d="M399.991,353.191c-1.079-1.116-1.341-0.975-1.491-0.816c-0.176,0.18-0.231,0.332,0.532,1.549
					c0.366,0.616,0.94,1.509,1.543,2.918c0.566,1.398,1.254,3.377,0.924,5.979c-0.173,1.291-0.596,2.556-1.217,3.718
					c-0.63,1.159-1.43,2.216-2.285,3.184c-1.757,1.907-3.763,3.392-5.529,4.591c-3.597,2.327-6.248,3.579-6.093,3.811
					c0.177,0.25,3.008-0.608,6.839-2.761c1.888-1.112,4.033-2.563,5.973-4.569c0.95-1.018,1.851-2.164,2.577-3.464
					c0.719-1.303,1.225-2.772,1.427-4.287c0.385-3.068-0.474-5.338-1.185-6.854C401.249,354.656,400.514,353.762,399.991,353.191"/>
				<path style="fill:#F9FBFC;" d="M382.136,346.472c-0.975-1.138-2.089-2.069-3.223-2.877c-2.293-1.588-4.675-2.672-6.908-3.518
					c-4.479-1.689-8.392-2.464-11.113-2.93c-2.73-0.445-4.302-0.517-4.266-0.397c0.05,0.181,1.636,0.514,4.318,1.176
					c2.673,0.677,6.48,1.638,10.753,3.412c2.13,0.886,4.371,2.006,6.461,3.523c2.035,1.528,4.013,3.549,4.615,6.144
					c0.621,2.555-0.145,5.473-1.765,7.821c-1.593,2.397-3.958,4.32-6.482,5.919c-5.145,3.129-9.598,4.554-12.89,5.642
					c-3.327,1.043-5.63,1.613-7.182,2.024c-3.114,0.792-3.242,0.967-3.205,1.214c0.031,0.219,0.232,0.466,3.453-0.033
					c1.607-0.265,3.972-0.721,7.39-1.701c1.706-0.497,3.675-1.13,5.913-2.012c2.231-0.893,4.747-2.025,7.428-3.689
					c2.65-1.684,5.203-3.739,6.985-6.45c1.794-2.65,2.717-6.059,1.889-9.195C383.9,348.997,383.102,347.611,382.136,346.472"/>
			</g>
		</g>
		<g>
			<g>
				<path style="fill:#F7DE72;" d="M142.186,164.835c1.699-0.004,2.895-0.362,4.159-0.991c1.26-0.63,2.575-1.561,4.346-2.649
					c2.089-1.282,3.609-3.143,4.625-4.768c0.827-1.324,1.314-2.473,1.519-3.006c-5.409-8.471-7.804-15.775-8.854-20.344
					c-0.068-0.294,0.045-0.596,0.288-0.774c0.898-0.657,1.481-1.699,1.481-2.886c-0.004-1.979-1.605-3.58-3.584-3.583
					c-1.978,0.003-3.579,1.604-3.583,3.583c-0.001,1.906,1.496,3.452,3.383,3.56c0.377,0.021,0.679,0.318,0.706,0.695
					c0.036,0.494,0.057,0.996,0.057,1.496c-0.001,1.091-0.098,2.175-0.366,3.173c-0.268,0.994-0.712,1.915-1.441,2.617
					c-0.485,0.467-1.095,0.823-1.809,1.016c-0.398,0.108-0.8,0.16-1.198,0.16c-1.073-0.001-2.099-0.365-3.054-0.918
					c-0.956-0.556-1.852-1.308-2.683-2.145c-1.661-1.675-3.068-3.702-4.04-5.249c-0.161-0.257-0.151-0.587,0.025-0.834
					c0.421-0.591,0.67-1.298,0.67-2.071c0-0.992-0.4-1.883-1.05-2.534c-0.651-0.649-1.542-1.049-2.533-1.049
					c-0.992,0-1.883,0.4-2.534,1.049c-0.65,0.651-1.049,1.542-1.05,2.534c0.004,1.979,1.605,3.58,3.584,3.583
					c0.249,0,0.492-0.026,0.728-0.074c0.365-0.076,0.733,0.131,0.858,0.483c0.474,1.335,1.053,3.097,1.516,4.923
					c0.463,1.829,0.814,3.715,0.816,5.347c-0.007,1.227-0.183,2.337-0.822,3.193c-0.293,0.385-0.691,0.66-1.121,0.822
					c-0.431,0.164-0.893,0.226-1.373,0.227c-1.518-0.009-3.283-0.608-5.059-1.382c-0.186-0.082-0.33-0.235-0.402-0.425
					c-0.071-0.191-0.061-0.401,0.026-0.584c0.263-0.553,0.416-1.147,0.416-1.78c0-1.153-0.465-2.19-1.221-2.946
					c-0.756-0.755-1.793-1.22-2.946-1.22c-1.153,0-2.19,0.465-2.946,1.22c-0.755,0.756-1.22,1.793-1.22,2.946
					c0,1.153,0.465,2.19,1.22,2.947c0.756,0.754,1.793,1.219,2.946,1.22c0.878-0.001,1.684-0.272,2.358-0.736
					c0.255-0.175,0.596-0.175,0.851,0l0.05,0.035v0.001c3.299,2.181,6.783,6.105,9.495,9.503c2.241,2.816,3.929,5.261,4.45,6.028
					C139.629,164.653,141.031,164.835,142.186,164.835z"/>
				<path style="fill:#F7DE72;" d="M140.022,209.765c-0.105-0.606-0.068-0.761,0.014-0.822c-0.265,0.079-1.718,0.247-4.158,0.038
					c-1.38-0.13-3.079-0.4-4.979-1.007c-0.95-0.3-1.948-0.682-2.978-1.16c-0.512-0.246-1.033-0.511-1.555-0.812
					c-0.247-0.146-0.549-0.323-0.757-0.461c-0.114-0.069-0.223-0.142-0.327-0.217c-0.049,0.072-0.087,0.192-0.131,0.283
					l-0.248,0.538c-0.222,0.464-0.448,0.935-0.677,1.414c-0.466,0.956-0.959,1.936-1.481,2.939
					c-1.041,2.008-2.191,4.107-3.458,6.269c-1.249,2.155-2.66,4.425-4.359,6.565c-1.69,2.147-3.593,4.227-5.609,6.279
					c-2.013,2.049-4.173,4.055-6.222,6.162c-0.253,0.264-0.511,0.528-0.749,0.8c-0.252,0.273-0.491,0.542-0.664,0.78
					c-0.355,0.511-0.493,1.007-0.334,1.379c0.133,0.392,0.615,0.798,1.206,1.072c0.592,0.284,1.276,0.477,1.978,0.615
					c2.848,0.519,5.931,0.294,8.934-0.138c3.019-0.451,6.023-1.171,8.921-2.118c2.362-0.759,4.519-1.658,6.489-2.615
					c1.978-0.939,3.766-1.948,5.387-2.968c1.624-1.015,3.087-2.039,4.391-3.056c0.648-0.513,1.27-1.013,1.836-1.517l0.255-0.228
					c0.008-0.006,0.002,0.011,0.04-0.235c0.054-0.364,0.108-0.72,0.161-1.07c0.73-5.623,0.228-9.503-0.098-12.078
					C140.465,211.813,140.135,210.478,140.022,209.765z M128.624,218.344c-1.47,0.401-2.826-0.374-2.812-0.719
					c0.031-0.75,1.882-1.627,2.5-1.562C130.093,216.25,129.313,218.157,128.624,218.344z"/>
				<path style="fill:#DBA24F;" d="M155.023,150.436c-1.343,2.202-3.286,4.167-5.248,5.549c-4.563,3.215-10.289,4.803-15.381,3.481
					c1.747,2.268,3.034,4.131,3.476,4.782c1.759,0.405,3.161,0.587,4.316,0.587c1.699-0.004,2.895-0.362,4.159-0.991
					c1.26-0.63,2.575-1.561,4.346-2.649c2.089-1.282,3.609-3.143,4.625-4.768c0.827-1.324,1.314-2.473,1.519-3.006
					C156.188,152.408,155.587,151.413,155.023,150.436z"/>
				<path style="fill:#DBA24F;" d="M129.167,230.096c-7.921,6.127-17.703,8.171-27.446,9.152c0.22,0.209,0.507,0.404,0.836,0.556
					c0.592,0.284,1.276,0.477,1.978,0.615c2.848,0.519,5.931,0.294,8.934-0.138c3.019-0.451,6.023-1.171,8.921-2.118
					c2.362-0.759,4.519-1.658,6.489-2.615c1.978-0.939,3.766-1.948,5.387-2.968c1.624-1.015,3.087-2.039,4.391-3.056
					c0.648-0.513,1.27-1.013,1.836-1.517l0.255-0.228c0.008-0.006,0.002,0.011,0.04-0.235c0.054-0.364,0.108-0.72,0.161-1.07
					c0.722-5.56,0.239-9.411-0.086-11.986C139.02,220.642,134.2,226.202,129.167,230.096z"/>
				<path style="fill:#F9FBFC;" d="M356.665,291.228c-0.282,0.251-0.71,0.252-0.993,0.002c-0.284-0.25-0.337-0.675-0.124-0.986
					l0.053-0.078c0.036-0.055,0.09-0.135,0.159-0.243c0.138-0.213,0.336-0.527,0.574-0.925c0.476-0.796,1.113-1.927,1.749-3.253
					c1.274-2.651,2.524-6.099,2.519-9.153c0-0.31-0.014-0.614-0.04-0.914c-1.555,0.693-4.809,2.118-7.499,3.125
					c-1.228,0.458-2.329,0.83-3.15,1.014c-0.318,0.07-0.645-0.073-0.81-0.354c-0.165-0.281-0.128-0.638,0.09-0.88l0.069-0.078
					c0.047-0.054,0.117-0.135,0.208-0.242c0.182-0.215,0.443-0.532,0.763-0.938c0.639-0.816,1.505-1.989,2.404-3.411
					c1.803-2.843,3.732-6.685,4.288-10.601c0.224-1.567,0.32-2.787,0.32-3.707c0.001-0.829-0.081-1.416-0.193-1.775
					c-0.115-0.367-0.236-0.473-0.285-0.502c-0.036-0.021-0.069-0.035-0.159-0.036c-0.126-0.003-0.356,0.051-0.631,0.175
					c-0.275,0.121-0.59,0.303-0.912,0.504c-0.399,0.248-1.213,0.662-2.415,1.182c-1.197,0.517-2.76,1.123-4.578,1.704
					c-3.638,1.161-8.298,2.223-13.102,2.224c-2.138,0-4.306-0.23-6.423-0.743c0.163,1.062,0.216,2.158,0.177,3.26
					c-0.25,4.148-1.751,8.441-4.201,12.045c-1.038,1.456-2.083,2.658-3.095,3.681c0.668,0.821,1.313,1.815,1.759,3.034
					c0.591,1.604,0.795,3.6,0.3,5.614c-0.464,2.018-1.434,4.058-2.775,5.98c-2.68,3.871-6.578,7.477-11.107,10.92
					c-4.556,3.431-9.739,6.748-15.459,9.849c-5.725,3.081-11.993,5.873-18.66,8.202c-6.665,2.324-13.737,4.194-21.048,5.278
					c-7.299,1.058-14.878,1.419-22.3,0.24c-3.697-0.616-7.147-1.452-10.236-2.681c-3.118-1.143-5.914-2.616-8.283-4.339
					c-4.771-3.435-7.86-7.581-9.956-11.327c-2.084-3.785-3.242-7.228-4.016-10.137c-0.758-2.918-1.143-5.323-1.359-7.271
					c-0.418-3.899-0.291-5.962-0.19-7.03c0.122-1.072,0.272-1.162,0.404-1.154c0.139,0.008,0.249,0.104,0.362,1.154
					c0.135,1.046,0.221,3.062,0.803,6.844c0.298,1.889,0.752,4.215,1.554,7.023c0.815,2.797,1.992,6.095,4.023,9.682
					c2.044,3.552,4.994,7.438,9.498,10.648c2.241,1.612,4.866,2.987,7.858,4.077c2.952,1.169,6.269,1.968,9.837,2.565
					c7.165,1.14,14.546,0.805,21.675-0.206c7.142-1.036,14.072-2.829,20.616-5.059c6.545-2.235,12.711-4.912,18.352-7.859
					c5.623-2.967,10.778-6.169,15.287-9.43c4.494-3.275,8.368-6.684,11.06-10.275c1.331-1.794,2.394-3.626,2.918-5.457
					c0.539-1.819,0.602-3.606,0.173-5.124c-0.352-1.279-0.944-2.359-1.6-3.256c-1.267,1.219-2.466,2.151-3.504,2.896
					c-2.02,1.417-3.523,2.161-4.551,2.626c-2.083,0.883-2.294,0.672-2.361,0.484c-0.025-0.068-0.031-0.133,0.02-0.218
					c0.112-0.189,0.529-0.494,1.831-1.256c0.927-0.573,2.317-1.389,4.207-2.809c1.865-1.432,4.287-3.468,6.669-6.806
					c2.297-3.381,3.707-7.358,4.021-11.2c0.091-1.905-0.058-3.749-0.662-5.346c-0.587-1.418-1.538-2.547-2.628-3.383
					c-0.754,1.301-1.574,2.567-2.447,3.789c-2.945,4.011-5.692,6.617-7.865,8.43c-0.575,0.477-1.108,0.899-1.606,1.278
					c-1.39,1.059-2.484,1.763-3.311,2.247c-2.261,1.297-2.513,1.115-2.602,0.939c-0.036-0.072-0.05-0.142,0.024-0.259
					c0.143-0.223,0.619-0.626,1.962-1.608c1.016-0.758,2.517-1.879,4.587-3.698c2.062-1.82,4.691-4.379,7.536-8.253
					c1.395-1.952,2.677-3.997,3.704-6.135c1.099-2.105,1.92-4.287,2.333-6.455c0.402-2.16,0.286-4.332-0.565-6.077
					c-0.836-1.754-2.367-2.967-3.972-3.661c-0.18-0.078-0.361-0.132-0.542-0.199c-1.005,2.775-2.462,5.429-4.226,7.781
					c-3.313,4.447-6.527,7.179-8.987,9.158c-0.036,0.029-0.075,0.063-0.11,0.09c-2.508,1.964-4.341,3.107-5.6,3.846
					c-2.544,1.438-2.801,1.273-2.895,1.096c-0.034-0.063-0.043-0.128,0.016-0.228c0.133-0.229,0.649-0.66,2.275-1.805
					c1.158-0.841,2.891-2.058,5.291-4.037c2.366-1.999,5.514-4.717,8.739-9.049c3.224-4.31,5.363-9.469,5.487-14.518
					c0.089-2.506-0.261-4.951-1.219-6.993c-0.826-1.787-2.103-3.206-3.549-4.229c-0.203,0.545-0.417,1.081-0.641,1.601
					c-1.21,2.717-2.669,5.132-4.203,7.276c-3.088,4.283-6.426,7.499-9.34,9.925c-0.484,0.403-0.953,0.776-1.414,1.136
					c-0.727,0.566-1.421,1.08-2.08,1.546c-1.449,1.025-2.728,1.824-3.757,2.423c-1.793,1.049-2.853,1.515-2.978,1.492
					c-0.095-0.033,0.77-0.587,2.406-1.68c1.638-1.095,4.025-2.781,6.835-5.211c2.786-2.445,6.023-5.64,9.002-9.857
					c1.49-2.1,2.908-4.46,4.06-7.09c1.159-2.614,2.051-5.546,2.173-8.618c0.044-1.529-0.15-3.094-0.73-4.517
					c-0.58-1.414-1.534-2.695-2.882-3.525c-0.664-0.448-1.386-0.757-2.12-0.949c-0.739-0.165-1.497-0.128-2.239,0.076
					c-0.746,0.194-1.472,0.584-2.158,1.07c-0.695,0.47-1.347,1.055-1.984,1.665c-2.526,2.499-4.782,5.524-7.214,8.495
					c-2.418,2.99-4.979,6.003-7.834,8.839c-1.419,1.424-2.918,2.795-4.488,4.105c-0.775,0.665-1.594,1.286-2.404,1.92
					c-0.866,0.578-1.735,1.156-2.606,1.736c-3.564,2.169-7.437,3.909-11.457,5.109c-8.014,2.558-16.369,3.813-24.477,5.642
					c-8.104,1.794-15.109,3.91-20.62,7.014c-5.526,3.028-9.54,6.851-12.67,10.339c-3.124,3.513-5.194,6.901-6.689,9.836
					c-1.473,2.95-2.427,5.458-2.999,7.536c-0.604,2.07-0.927,3.686-1.132,4.923c-0.212,1.235-0.314,2.094-0.391,2.682
					c-0.111,0.875-0.19,1.159-0.281,1.251c-0.032,0.033-0.065,0.042-0.102,0.045c-0.128,0.011-0.298-0.094-0.383-1.318
					c-0.04-0.613-0.048-1.506,0.064-2.797c0.035-0.424,0.092-0.906,0.161-1.418c-1.245,1.87-2.069,3.581-2.359,4.942
					c-0.066,0.304-0.31,0.533-0.616,0.581c-0.306,0.049-0.609-0.095-0.765-0.362c-0.07-0.118-1.635-2.887-1.634-9.565
					c0.001-6.68,1.558-17.27,7.707-33.085c6.036-15.516,9.437-30.003,9.435-42.656c-0.004-12.944-3.537-23.938-11.407-32.308
					c-10.466-11.109-21.283-15.189-32.481-15.199c-2.948,0-5.925,0.293-8.926,0.816c0.167,0.266,0.328,0.528,0.501,0.796
					c0.122,0.189,0.152,0.427,0.082,0.641c-0.013,0.036-0.488,1.479-1.58,3.307c-1.085,1.815-2.784,4.02-5.281,5.57
					c-0.015,0.008-0.028,0.019-0.042,0.028c-1.726,1.058-3.049,2.003-4.459,2.712c-1.406,0.709-2.91,1.154-4.831,1.15
					c-1.379,0-2.971-0.218-4.944-0.689c-0.184-0.044-0.346-0.157-0.45-0.314c-0.001-0.001-0.115-0.173-0.332-0.49
					c-0.183-0.266-0.451-0.65-0.765-1.094c-0.323,0.351-0.642,0.709-0.973,1.058c-0.518,0.603-1.118,1.144-1.582,1.809
					c-0.959,1.299-2.034,2.544-2.865,3.988c-0.443,0.703-0.889,1.41-1.337,2.121c-0.4,0.743-0.803,1.49-1.207,2.242
					c-0.764,1.525-1.499,3.087-2.128,4.71c-1.269,3.236-2.222,6.679-2.605,10.236c-0.408,3.549-0.11,7.225,1.029,10.659
					c0.23,0.879,0.683,1.672,1.02,2.514c0.199,0.406,0.446,0.789,0.666,1.185c0.023,0.039,0.045,0.078,0.067,0.117
					c0.106,0.079,0.212,0.163,0.317,0.234c0.319,0.221,0.496,0.329,0.751,0.491c0.475,0.294,0.953,0.56,1.425,0.806
					c0.949,0.48,1.872,0.891,2.762,1.208c1.775,0.656,3.385,1.01,4.716,1.239c2.672,0.429,4.237,0.391,4.33,0.552
					c0.002,0.001-0.011,0.005-0.012,0.007c0.005-0.002,0.009-0.005,0.014-0.007c0.107-0.042,0.248-0.023,0.571,0.646
					c0.314,0.671,0.833,1.993,1.385,4.627c0.489,2.626,1.139,6.622,0.468,12.483c-0.016,0.114-0.032,0.234-0.047,0.35l0.366,0.13
					c3.512,1.236,7.048,1.785,10.347,1.6c3.292-0.142,6.373-0.696,9.106-1.67c1.461-0.487,2.831-1.045,4.123-1.65
					c3.584-1.678,6.543-3.735,8.966-5.777c0.872-0.645,1.573-1.421,2.313-2.09c0.363-0.343,0.717-0.679,1.064-1.007
					c0.333-0.344,0.636-0.702,0.945-1.04c0.611-0.682,1.196-1.335,1.756-1.959c0.509-0.666,0.996-1.302,1.459-1.909
					c0.971-1.184,1.671-2.379,2.363-3.42c0.699-1.038,1.269-2,1.747-2.878c1.911-3.513,2.657-5.49,3.141-6.483
					c0.461-1.005,0.589-1.066,0.704-1.028c0.109,0.036,0.195,0.165-0.078,1.251c-0.298,1.074-0.881,3.152-2.7,6.823
					c-0.455,0.917-1.006,1.922-1.693,3.005c-0.679,1.087-1.372,2.331-2.344,3.568c-0.467,0.634-0.955,1.297-1.467,1.992
					c-0.567,0.653-1.159,1.334-1.779,2.048c-0.313,0.353-0.622,0.726-0.96,1.085c-0.354,0.344-0.716,0.696-1.086,1.055
					c-0.755,0.701-1.473,1.508-2.368,2.187c-2.448,2.103-5.447,4.225-9.095,5.979c-0.441,1.851-3.133,12.169-12.491,31.245
					c-7.185,14.646-10.874,30.508-10.873,45.617c0,11.957,2.308,23.439,7.004,33.485c5.308,11.349,13.422,19.158,23.409,24.821
					c9.986,5.659,21.851,9.146,34.563,11.762c10.163,2.093,23.619,3.789,38.196,3.788c21.826,0.003,46.159-3.808,65.764-15.695
					c24.564-14.886,35.44-35.633,39.547-47.556c1.367-3.966,1.98-6.973,2.095-8.365c0.02-0.242,0.157-0.461,0.367-0.584l0.011-0.006
					l0.051-0.033c0.048-0.03,0.121-0.078,0.217-0.146c0.192-0.135,0.473-0.345,0.815-0.636c0.68-0.583,1.599-1.49,2.522-2.773
					c1.78-2.478,3.571-6.36,3.736-12.062c-0.29-0.042-0.662-0.083-1.111-0.083C359.844,289.617,358.141,289.915,356.665,291.228z
					 M246.601,318.088c0.177-0.116,0.479-0.249,1.016-0.421c0.712-0.219,1.605-0.494,2.883-0.889
					c1.331-0.436,3.114-1.006,5.251-2.12c2.115-1.107,4.065-2.648,4.9-4.582c0.224-0.475,0.347-0.972,0.442-1.468
					c0.031-0.526,0.152-1.054,0.122-1.548c0.044-1.01-0.192-1.906-0.528-2.661c-0.709-1.527-2.142-2.23-3.119-2.608
					c-0.577-0.219-1.032-0.346-1.326-0.448c-0.239-0.002-0.315-0.105-0.367-0.218c-0.042-0.094-0.066-0.185-0.01-0.311
					c0.075-0.169,0.302-0.403,0.866-0.811c0.49-0.358,1.231-0.855,2.276-1.637c1.02-0.794,2.428-1.837,3.809-3.558
					c0.709-0.849,1.214-1.811,1.578-2.782l0.208-0.743c0.077-0.244,0.063-0.501,0.102-0.749c0.08-0.489,0.038-1.014-0.015-1.487
					c-0.123-0.962-0.523-1.748-1.156-2.26c-0.629-0.523-1.474-0.783-2.284-0.904c-1.643-0.231-3.133-0.069-4.17,0.006
					c-0.518,0.042-0.933,0.07-1.229,0.067c-0.332,0.094-0.437-0.006-0.518-0.122c-0.075-0.111-0.121-0.226,0.017-0.462
					c0.108-0.186,0.323-0.442,0.74-0.841c0.473-0.46,1.201-1.098,2.251-2.058c1.041-0.965,2.442-2.232,4.033-4.092
					c1.552-1.838,2.969-3.994,3.038-6.028c0.021-0.253-0.022-0.489-0.043-0.73c-0.065-0.24-0.128-0.478-0.19-0.713
					c-0.172-0.44-0.368-0.863-0.683-1.176c-0.586-0.664-1.435-1.042-2.28-1.254c-1.728-0.38-3.334-0.238-4.438-0.153
					c-0.475,0.039-0.85,0.071-1.152,0.087c-0.226,0.06-0.354,0.047-0.436,0.001c-0.141-0.01-0.246-0.031-0.273-0.081
					c-0.015-0.029,0.025-0.075,0.106-0.133c-0.007-0.02-0.011-0.041-0.013-0.063c-0.024-0.187,0.148-0.464,1.043-1.201
					c0.567-0.479,1.43-1.147,2.636-2.195c1.173-1.06,2.806-2.473,4.252-4.732c0.708-1.128,1.179-2.369,1.225-3.581
					c0.02-0.608-0.079-1.195-0.283-1.762c-0.114-0.283-0.228-0.564-0.342-0.845c-0.155-0.239-0.311-0.478-0.464-0.714
					c-0.681-0.875-1.744-1.215-2.855-1.253c-1.115-0.046-2.24,0.205-3.264,0.441c-2.059,0.515-3.801,1.117-5.077,1.403
					c-1.277,0.299-2.064,0.312-2.128,0.161c0-0.001-0.002-0.001-0.002-0.001c-0.047-0.122,0.633-0.361,1.806-0.848
					c1.181-0.476,2.839-1.24,4.977-1.933c1.071-0.33,2.266-0.672,3.646-0.692c0.688-0.007,1.417,0.077,2.151,0.33
					c0.362,0.12,0.701,0.349,1.053,0.532c0.314,0.242,0.604,0.526,0.901,0.802c0.225,0.325,0.45,0.651,0.676,0.981
					c0.172,0.347,0.313,0.706,0.468,1.066c0.088,0.226,0.157,0.462,0.22,0.702c0.138,0.537,0.213,1.101,0.199,1.66
					c-0.04,1.631-0.648,3.157-1.453,4.443c-1.652,2.571-3.41,3.993-4.701,5.049c-0.764,0.595-1.396,1.03-1.935,1.373
					c0.986-0.189,2.205-0.311,3.632-0.118c1.018,0.166,2.199,0.549,3.138,1.475c0.933,0.935,1.473,2.252,1.487,3.654
					c0.015,0.936-0.211,1.828-0.537,2.669c-0.163,0.423-0.344,0.836-0.548,1.229c-0.629,1.18-1.408,2.257-2.253,3.249
					c-0.651,0.762-1.27,1.416-1.852,1.987c-0.931,0.917-1.762,1.621-2.459,2.194c-0.69,0.56-1.254,0.972-1.729,1.296
					c0.961-0.23,2.193-0.439,3.685-0.367c0.951,0.063,2.061,0.276,3.064,0.992c1.016,0.703,1.692,1.951,1.881,3.187
					c0.081,0.313,0.069,0.619,0.1,0.934c0.037,0.31,0.011,0.628-0.02,0.948c-0.037,0.316-0.03,0.646-0.112,0.957l-0.243,0.936
					c-0.423,1.209-1.04,2.36-1.838,3.32c-1.571,1.95-3.106,3.01-4.246,3.786c-1.093,0.713-1.895,1.111-2.479,1.354
					c0.081,0.01,0.159,0.018,0.246,0.031c0.581,0.089,1.282,0.293,2.032,0.692c0.75,0.39,1.531,1.057,2.073,1.99
					c0.532,0.923,0.895,2.074,0.902,3.257c0.071,0.6-0.04,1.186-0.059,1.805c-0.083,0.63-0.228,1.281-0.487,1.894
					c-0.497,1.241-1.338,2.346-2.326,3.241c-0.984,0.91-2.105,1.641-3.262,2.249c-2.32,1.207-4.201,1.749-5.617,2.123
					c-1.422,0.361-2.406,0.5-3.078,0.561c-1.346,0.104-1.448-0.123-1.479-0.351C246.355,318.364,246.367,318.241,246.601,318.088z
					 M162.555,178.575c-0.756,0.272-1.856,0.381-2.903,0.173c-0.525-0.105-0.905-0.247-1.179-0.395
					c-0.016,0.05-0.026,0.092-0.043,0.144c-0.287,0.814-0.702,1.823-1.399,2.947c0.176,0.052,0.36,0.109,0.574,0.182
					c0.937,0.283,1.834,0.553,2.806,0.846c0.765,0.244,1.307,0.461,1.339,0.862c0.024,0.263-0.575,0.546-1.502,0.613
					c-0.924,0.075-2.134-0.087-3.245-0.446c-0.213-0.073-0.388-0.143-0.559-0.212c-0.216-0.087-0.403-0.171-0.559-0.252
					c-0.677,0.833-1.445,1.599-2.291,2.26c0.065,0.135,0.134,0.277,0.219,0.439c0.019,0.038,0.045,0.069,0.066,0.106
					c0.37,0.653,0.895,1.134,1.391,1.506c0.027,0.021,0.055,0.045,0.082,0.064c0.551,0.386,1.028,0.679,0.981,1.088
					c-0.024,0.248-0.623,0.463-1.555,0.282c-0.913-0.176-2.118-0.967-2.695-2.106c-0.053-0.104-0.097-0.201-0.14-0.298
					c-0.338,0.188-0.674,0.381-1.028,0.534c-0.95,0.385-1.925,0.626-2.871,0.725c0.025,0.222,0.049,0.478,0.085,0.808
					c0.091,0.848,0.402,1.614,0.678,2.224c0.281,0.604,0.522,1.088,0.276,1.415c-0.148,0.205-0.758,0.084-1.45-0.504
					c-0.679-0.581-1.338-1.709-1.458-2.894c-0.048-0.444-0.032-0.782,0.004-1.073c-0.362-0.04-0.713-0.093-1.045-0.166
					c-1.674-0.414-2.899-1.191-3.605-1.875c-0.708-0.695-0.936-1.252-0.779-1.446v-0.001c0.235-0.332,1.873,1.078,4.673,1.361
					c0.69,0.054,1.43,0.05,2.19-0.077c0.759-0.14,1.529-0.388,2.285-0.742c1.491-0.75,2.919-1.963,4.054-3.401
					c1.146-1.43,1.762-2.708,2.231-3.664c0.456-0.967,0.728-1.649,0.958-2.102c0.079-0.16,0.151-0.284,0.221-0.393
					c0.329-0.509,0.583-0.513,0.888-0.482c0.35,0.035,0.71,0.149,0.699,1.297c-0.005,0.198-0.03,0.441-0.066,0.705
					c0.263,0.016,0.614,0.082,1.147,0.189c0.823,0.162,1.672,0.216,2.344,0.286c0.669,0.066,1.18,0.178,1.292,0.565
					C163.741,177.918,163.318,178.301,162.555,178.575z"/>
				<path style="fill:#DCEAF4;" d="M186.388,208.921c-0.679,1.087-1.372,2.331-2.344,3.568c-0.467,0.634-0.955,1.297-1.467,1.992
					c-0.567,0.653-1.159,1.334-1.779,2.048c-0.313,0.353-0.622,0.726-0.96,1.085c-0.354,0.344-0.716,0.696-1.086,1.055
					c-0.755,0.701-1.473,1.508-2.368,2.187c-2.448,2.103-5.447,4.225-9.095,5.979c-0.181,0.759-0.752,2.967-1.995,6.595
					c3.909-2.173,7.605-4.7,10.951-7.495c7.605-6.353,14.373-15.078,14.056-25.256c-0.401,1.199-1.056,2.889-2.219,5.237
					C187.626,206.833,187.075,207.838,186.388,208.921z"/>
				<path style="fill:#DCEAF4;" d="M257.324,317.061c3.289-0.661,6.713-1.284,9.848-2.511c4.053-1.586,8.011-4.72,8.129-9.484
					c0.109-4.392-3.33-6.299-7.301-6.565c-0.498-0.033-0.681-0.653-0.252-0.932c4.546-2.961,11.505-14.841,1.752-15.318
					c-0.421-0.021-0.682-0.537-0.354-0.853c2.474-2.389,4.681-5.616,5.718-8.914c0.458-1.456,0.965-3.419,0.131-4.849
					c-1.127-1.93-3.468-2.135-5.495-2.134c-0.425,0-0.677-0.552-0.354-0.853c2.953-2.753,7.509-7.598,5.07-11.99
					c-1.466-2.642-4.494-3.326-7.325-3.23c-2.198,0.074-4.467,0.439-6.691,1.028c0.315-0.038,0.641-0.063,0.978-0.068
					c0.688-0.007,1.417,0.077,2.151,0.33c0.362,0.12,0.701,0.349,1.053,0.532c0.314,0.242,0.604,0.526,0.901,0.802
					c0.225,0.325,0.45,0.651,0.676,0.981c0.172,0.347,0.313,0.706,0.468,1.066c0.088,0.226,0.157,0.462,0.22,0.702
					c0.138,0.537,0.213,1.101,0.199,1.66c-0.04,1.631-0.648,3.157-1.453,4.443c-1.652,2.571-3.41,3.993-4.701,5.049
					c-0.764,0.595-1.396,1.03-1.935,1.373c0.986-0.189,2.205-0.311,3.632-0.118c1.018,0.166,2.199,0.549,3.138,1.475
					c0.933,0.935,1.473,2.252,1.487,3.654c0.015,0.936-0.211,1.828-0.537,2.669c-0.163,0.423-0.344,0.836-0.548,1.229
					c-0.629,1.18-1.408,2.257-2.253,3.249c-0.651,0.762-1.27,1.416-1.852,1.987c-0.931,0.917-1.762,1.621-2.459,2.194
					c-0.69,0.56-1.254,0.972-1.729,1.296c0.961-0.23,2.193-0.439,3.685-0.367c0.951,0.063,2.061,0.276,3.064,0.992
					c1.016,0.703,1.692,1.951,1.881,3.187c0.081,0.313,0.069,0.619,0.1,0.934c0.037,0.31,0.011,0.628-0.02,0.948
					c-0.037,0.316-0.03,0.646-0.112,0.957l-0.243,0.936c-0.423,1.209-1.04,2.36-1.838,3.32c-1.571,1.95-3.106,3.01-4.246,3.786
					c-1.093,0.713-1.895,1.111-2.479,1.354c0.081,0.01,0.159,0.018,0.246,0.031c0.581,0.089,1.282,0.293,2.032,0.692
					c0.75,0.39,1.531,1.057,2.073,1.99c0.532,0.923,0.895,2.074,0.902,3.257c0.071,0.6-0.04,1.186-0.059,1.805
					c-0.083,0.63-0.228,1.281-0.487,1.894c-0.497,1.241-1.338,2.346-2.326,3.241c-0.984,0.91-2.105,1.641-3.262,2.249
					c-1.326,0.69-2.504,1.158-3.539,1.507C254.465,317.577,255.921,317.343,257.324,317.061z"/>
				<path style="fill:#DCEAF4;" d="M330.369,271.739c0.501-2.988,0.467-5.99,0.304-8.995c-0.712-0.11-1.422-0.238-2.126-0.409
					c0.163,1.062,0.216,2.158,0.177,3.26c-0.25,4.148-1.751,8.441-4.201,12.045c-1.038,1.456-2.083,2.658-3.095,3.681
					c0.668,0.821,1.313,1.815,1.759,3.034c0.591,1.604,0.795,3.6,0.3,5.614c-0.464,2.018-1.434,4.058-2.775,5.98
					c-2.68,3.871-6.578,7.477-11.107,10.92c-4.556,3.431-9.739,6.748-15.459,9.849c-5.725,3.081-11.993,5.873-18.66,8.202
					c-6.665,2.324-13.737,4.194-21.048,5.278c-7.299,1.058-14.878,1.419-22.3,0.24c-3.697-0.616-7.147-1.452-10.236-2.681
					c-3.118-1.143-5.914-2.616-8.283-4.339c-4.771-3.435-7.86-7.581-9.956-11.327c-2.084-3.785-3.242-7.228-4.016-10.137
					c-0.758-2.918-1.143-5.323-1.359-7.271c-0.418-3.899-0.291-5.962-0.19-7.03c0.122-1.072,0.272-1.162,0.404-1.154
					c0.139,0.008,0.249,0.104,0.362,1.154c0.135,1.046,0.221,3.062,0.803,6.844c0.298,1.889,0.752,4.215,1.554,7.023
					c0.815,2.797,1.992,6.095,4.023,9.682c2.044,3.552,4.994,7.438,9.498,10.648c2.241,1.612,4.866,2.987,7.858,4.077
					c2.952,1.169,6.269,1.968,9.837,2.565c7.165,1.14,14.546,0.805,21.675-0.206c7.142-1.036,14.072-2.829,20.616-5.059
					c6.545-2.235,12.711-4.912,18.352-7.859c5.623-2.967,10.778-6.169,15.287-9.43c4.494-3.275,8.368-6.684,11.06-10.275
					c1.331-1.794,2.394-3.626,2.918-5.457c0.539-1.819,0.602-3.606,0.173-5.124c-0.352-1.279-0.944-2.359-1.6-3.256
					c-1.267,1.219-2.466,2.151-3.504,2.896c-0.033,0.023-0.063,0.043-0.097,0.065c-0.745,2.512-2.018,4.828-3.681,6.878
					c-4.062,5.008-9.518,8.347-14.782,11.94c-5.644,3.853-11.354,7.659-17.392,10.875c-11.316,6.03-23.647,9.966-36.579,8.161
					c-11.508-1.605-22.916-6.129-30.138-15.645c-4.034-5.314-5.991-11.623-7.096-18.132c-0.569-3.351-0.608-7.102-1.709-10.323
					c-0.398-1.166-1.285-3.569-2.935-3.416c-0.939,0.088-1.693,0.618-2.326,1.308c-0.453,1.667-0.727,3.028-0.903,4.089
					c-0.212,1.235-0.314,2.094-0.391,2.682c-0.111,0.875-0.19,1.159-0.281,1.251c-0.032,0.033-0.065,0.042-0.102,0.045
					c-0.128,0.011-0.298-0.094-0.383-1.318c-0.04-0.613-0.048-1.506,0.064-2.797c0.031-0.379,0.082-0.809,0.141-1.261
					c-0.04,0.035-0.082,0.06-0.126,0.078c-1.156,1.776-1.935,3.404-2.212,4.707c-0.066,0.304-0.31,0.533-0.616,0.581
					c-0.306,0.049-0.609-0.095-0.765-0.362c-0.07-0.118-1.635-2.887-1.634-9.565c0.001-5.297,0.99-13.065,4.462-23.936
					c-2.629,6.552-4.519,13.457-6.31,20.195c-2.901,10.917-4.997,22.729-2.75,33.974c2.033,10.177,7.482,19.119,15.965,25.181
					c7.583,5.418,16.495,8.732,25.6,10.526c27.426,5.404,57.996-1.452,78.532-21.033c6.999-6.674,12.709-14.352,17.498-22.615
					c1.508-3.242,2.752-6.785,1.79-10.142c-0.411-1.432-1.996-3.578-1.486-5.172C327.838,278.192,329.777,275.272,330.369,271.739z"
					/>
			</g>
			<g>
				<path style="fill:#1D2E42;" d="M363.204,288.361c-0.046-0.013-0.877-0.245-2.094-0.246c-0.802-0.001-1.784,0.111-2.807,0.462
					c0.357-0.642,0.741-1.37,1.132-2.186c1.318-2.761,2.66-6.352,2.666-9.801c0-0.727-0.062-1.447-0.198-2.151
					c-0.044-0.227-0.189-0.418-0.393-0.524c-0.204-0.105-0.444-0.111-0.653-0.016c-0.002,0.001-0.522,0.237-1.354,0.606
					c-1.249,0.553-3.195,1.398-5.101,2.164c-0.871,0.351-1.736,0.684-2.52,0.965c0.59-0.783,1.292-1.768,2.022-2.922
					c1.864-2.949,3.895-6.939,4.505-11.19c0.23-1.616,0.336-2.896,0.336-3.92c-0.005-1.231-0.14-2.092-0.477-2.755
					c-0.17-0.328-0.408-0.609-0.708-0.796c-0.3-0.188-0.642-0.265-0.953-0.263c-0.451,0.002-0.854,0.135-1.238,0.303
					c-0.384,0.171-0.75,0.386-1.1,0.604c-0.261,0.166-1.066,0.583-2.215,1.076c-3.461,1.496-10.212,3.809-17.085,3.805
					c-2.294,0-4.593-0.262-6.796-0.879c-0.112-0.373-0.226-0.746-0.376-1.104c-0.723-1.664-1.943-2.946-3.243-3.834
					c0.272-0.509,0.536-1.022,0.783-1.543c1.116-2.191,1.992-4.536,2.398-6.928c0.41-2.377,0.235-4.912-0.865-6.979
					c-1.085-2.085-2.996-3.422-4.818-4.112c-0.164-0.061-0.325-0.098-0.488-0.152c0.677-2.161,1.08-4.378,1.101-6.58
					c0.055-2.69-0.38-5.384-1.525-7.667c-1.025-2.049-2.597-3.666-4.301-4.738c0.643-1.968,1.095-4.077,1.124-6.329
					c0.011-1.669-0.24-3.425-0.976-5.079c-0.701-1.668-2.046-3.113-3.641-4.071c-1.534-1.021-3.787-1.459-5.7-0.758
					c-1.897,0.676-3.382,1.933-4.715,3.233c-2.656,2.642-4.9,5.629-7.328,8.546c-2.409,2.928-4.929,5.847-7.719,8.573
					c-1.388,1.37-2.841,2.691-4.368,3.94c-0.753,0.638-1.545,1.233-2.332,1.832c-0.818,0.539-1.641,1.08-2.464,1.622
					c-3.391,2.015-7.079,3.681-10.997,4.83c-7.785,2.461-16.081,3.71-24.265,5.551c-8.183,1.812-15.383,3.987-21.124,7.246
					c-2.877,1.59-5.381,3.413-7.532,5.266c-1.034,0.97-2.097,1.831-2.994,2.794c-0.894,0.964-1.795,1.855-2.583,2.778
					c-3.197,3.674-5.298,7.228-6.784,10.304c-1.464,3.093-2.373,5.722-2.879,7.897c-0.027,0.11-0.046,0.206-0.072,0.314
					c-1.683,2.1-2.972,4.103-3.764,5.931c-0.371-1.407-0.757-3.649-0.758-6.921c0-6.445,1.506-16.855,7.606-32.54
					c6.078-15.633,9.535-30.279,9.536-43.2c0.004-13.206-3.632-24.643-11.814-33.335c-10.677-11.367-22-15.683-33.574-15.672
					c-3.238,0-6.496,0.344-9.767,0.947c-4.343-7.249-6.419-13.468-7.405-17.572c1.035-0.926,1.7-2.269,1.7-3.773
					c-0.001-2.808-2.276-5.083-5.084-5.083c-2.807,0-5.082,2.275-5.083,5.083c0.001,2.474,1.778,4.5,4.115,4.953
					c0.012,0.267,0.031,0.535,0.031,0.798c0.002,1.333-0.169,2.604-0.576,3.547c-0.202,0.472-0.458,0.861-0.771,1.161
					c-0.313,0.3-0.682,0.518-1.163,0.651c-0.267,0.072-0.533,0.106-0.804,0.107c-0.725,0.001-1.502-0.251-2.301-0.716
					c-1.197-0.692-2.412-1.853-3.486-3.125c-0.959-1.133-1.8-2.34-2.471-3.383c0.42-0.735,0.677-1.582,0.676-2.493
					c0-2.808-2.276-5.083-5.083-5.083c-2.808,0-5.083,2.275-5.084,5.083c0.001,2.808,2.276,5.083,5.084,5.083
					c0.124,0,0.241-0.028,0.363-0.037c0.423,1.223,0.897,2.708,1.285,4.238c0.447,1.759,0.772,3.563,0.77,4.978
					c0.006,1.069-0.2,1.889-0.515,2.283c-0.113,0.147-0.251,0.248-0.461,0.33c-0.21,0.08-0.493,0.129-0.84,0.129
					c-0.96,0.006-2.348-0.395-3.794-0.984c0.171-0.53,0.275-1.094,0.275-1.687c0-3.13-2.537-5.666-5.667-5.666
					S115,142.12,115,145.25c0,3.13,2.536,5.666,5.666,5.667c0.998,0,1.929-0.273,2.742-0.727c2.953,2.041,6.271,5.734,8.838,8.965
					c1.003,1.259,1.895,2.446,2.618,3.437c-2.143,2.251-4.27,4.677-5.998,7.485c-1.901,2.829-3.472,5.947-4.793,9.262
					c-1.303,3.317-2.291,6.865-2.691,10.577c-0.401,3.703-0.114,7.595,1.116,11.282c0.13,0.469,0.31,0.92,0.515,1.363l0.586,1.343
					l0.627,1.11c-0.105,0.217-0.206,0.426-0.312,0.645c-0.231,0.452-0.465,0.911-0.703,1.378c-0.482,0.932-0.991,1.89-1.527,2.87
					c-1.07,1.962-2.243,4.016-3.528,6.13c-1.284,2.131-2.652,4.271-4.325,6.333c-1.661,2.068-3.544,4.081-5.548,6.087
					c-2.006,2.01-4.156,3.975-6.282,6.123c-0.539,0.563-1.034,1.052-1.584,1.744c-0.257,0.366-0.51,0.758-0.648,1.256
					c-0.146,0.483-0.176,1.062-0.008,1.597c0.362,1.087,1.224,1.677,1.979,2.073c0.784,0.39,1.585,0.619,2.385,0.787
					c3.205,0.609,6.399,0.364,9.537-0.07c3.138-0.459,6.232-1.195,9.26-2.183c2.44-0.785,4.666-1.716,6.694-2.708
					c2.037-0.974,3.875-2.021,5.54-3.082c1.668-1.057,3.167-2.123,4.509-3.19c0.668-0.539,1.304-1.063,1.898-1.605
					c0.178-0.167,0.355-0.333,0.53-0.497l0.16,0.058c3.732,1.315,7.492,1.887,10.977,1.689c3.479-0.154,6.719-0.752,9.577-1.78
					c0.95-0.321,1.851-0.677,2.73-1.048c-0.932,3.433-3.985,13.285-12.086,29.799c-7.283,14.849-11.025,30.925-11.026,46.277
					c0,12.148,2.344,23.847,7.145,34.12c5.442,11.65,13.829,19.717,24.029,25.491c10.201,5.778,22.212,9.292,34.999,11.926
					c10.262,2.112,23.805,3.819,38.499,3.819c21.995-0.003,46.578-3.818,66.541-15.912c16.622-10.073,27.084-22.801,33.447-33.765
					c3.183-5.483,5.343-10.526,6.74-14.586c1.301-3.784,1.938-6.677,2.13-8.358c0.648-0.446,2.189-1.635,3.746-3.797
					c2.009-2.785,4.008-7.185,4.048-13.548C363.752,288.75,363.528,288.453,363.204,288.361 M133.42,158.22
					c-2.712-3.398-6.196-7.322-9.495-9.503v-0.001l-0.05-0.035c-0.255-0.175-0.596-0.175-0.851,0
					c-0.674,0.464-1.48,0.735-2.358,0.736c-1.153-0.001-2.19-0.466-2.946-1.22c-0.755-0.757-1.22-1.794-1.22-2.947
					c0-1.153,0.465-2.19,1.22-2.946c0.756-0.755,1.793-1.22,2.946-1.22c1.153,0,2.19,0.465,2.946,1.22
					c0.756,0.756,1.221,1.793,1.221,2.946c0,0.633-0.153,1.227-0.416,1.78c-0.087,0.183-0.097,0.393-0.026,0.584
					c0.072,0.19,0.216,0.343,0.402,0.425c1.776,0.774,3.541,1.372,5.059,1.382c0.48-0.001,0.942-0.063,1.373-0.227
					c0.43-0.162,0.828-0.437,1.121-0.822c0.639-0.856,0.815-1.966,0.822-3.193c-0.002-1.632-0.353-3.518-0.816-5.347
					c-0.463-1.826-1.042-3.588-1.516-4.923c-0.125-0.352-0.493-0.559-0.858-0.483c-0.236,0.048-0.479,0.074-0.728,0.074
					c-1.979-0.003-3.58-1.604-3.584-3.583c0.001-0.992,0.4-1.883,1.05-2.534c0.651-0.649,1.542-1.049,2.534-1.049
					c0.991,0,1.882,0.4,2.533,1.049c0.65,0.651,1.05,1.542,1.05,2.534c0,0.773-0.249,1.48-0.67,2.071
					c-0.176,0.247-0.186,0.577-0.025,0.834c0.972,1.547,2.379,3.574,4.04,5.249c0.831,0.837,1.727,1.589,2.683,2.145
					c0.955,0.553,1.981,0.917,3.054,0.918c0.398,0,0.8-0.052,1.198-0.16c0.714-0.193,1.324-0.549,1.809-1.016
					c0.729-0.702,1.173-1.623,1.441-2.617c0.268-0.998,0.365-2.082,0.366-3.173c0-0.5-0.021-1.002-0.057-1.496
					c-0.027-0.377-0.329-0.674-0.706-0.695c-1.887-0.108-3.384-1.654-3.383-3.56c0.004-1.979,1.605-3.58,3.583-3.583
					c1.979,0.003,3.58,1.604,3.584,3.583c0,1.187-0.583,2.229-1.481,2.886c-0.243,0.178-0.356,0.48-0.288,0.774
					c1.05,4.569,3.445,11.873,8.854,20.344c-0.205,0.533-0.692,1.682-1.519,3.006c-1.016,1.625-2.536,3.486-4.625,4.768
					c-1.771,1.088-3.086,2.019-4.346,2.649c-1.264,0.629-2.46,0.987-4.159,0.991c-1.155,0-2.557-0.182-4.316-0.587
					C137.35,163.481,135.662,161.036,133.42,158.22 M140.948,226.474c-0.053,0.35-0.107,0.706-0.161,1.07
					c-0.038,0.246-0.032,0.229-0.04,0.235l-0.255,0.228c-0.566,0.504-1.188,1.004-1.836,1.517c-1.304,1.017-2.767,2.041-4.391,3.056
					c-1.621,1.02-3.409,2.029-5.387,2.968c-1.97,0.957-4.127,1.856-6.489,2.615c-2.898,0.947-5.902,1.667-8.921,2.118
					c-3.003,0.432-6.086,0.657-8.934,0.138c-0.702-0.138-1.386-0.331-1.978-0.615c-0.591-0.274-1.073-0.68-1.206-1.072
					c-0.159-0.372-0.021-0.868,0.334-1.379c0.173-0.238,0.412-0.507,0.664-0.78c0.238-0.272,0.496-0.536,0.749-0.8
					c2.049-2.107,4.209-4.113,6.222-6.162c2.016-2.052,3.919-4.132,5.609-6.279c1.699-2.14,3.11-4.41,4.359-6.565
					c1.267-2.162,2.417-4.261,3.458-6.269c0.522-1.003,1.015-1.983,1.481-2.939c0.229-0.479,0.455-0.95,0.677-1.414l0.248-0.538
					c0.044-0.091,0.082-0.211,0.131-0.283c0.104,0.075,0.213,0.148,0.327,0.217c0.208,0.138,0.51,0.315,0.757,0.461
					c0.522,0.301,1.043,0.566,1.555,0.812c1.03,0.478,2.028,0.86,2.978,1.16c1.9,0.607,3.599,0.877,4.979,1.007
					c2.44,0.209,3.893,0.041,4.158-0.038c-0.082,0.061-0.119,0.216-0.014,0.822c0.113,0.713,0.443,2.048,0.828,4.631
					C141.176,216.971,141.678,220.851,140.948,226.474 M358.485,301.76c-0.924,1.283-1.843,2.19-2.522,2.773
					c-0.342,0.291-0.622,0.501-0.815,0.636c-0.096,0.067-0.169,0.115-0.217,0.146l-0.051,0.033l-0.011,0.006
					c-0.21,0.123-0.348,0.342-0.367,0.584c-0.114,1.393-0.728,4.399-2.095,8.365c-4.106,11.923-14.982,32.67-39.547,47.556
					c-19.604,11.888-43.938,15.698-65.764,15.695c-14.577,0.001-28.033-1.695-38.196-3.788
					c-12.712-2.616-24.577-6.102-34.563-11.762c-9.987-5.663-18.101-13.473-23.409-24.821c-4.696-10.046-7.004-21.528-7.004-33.485
					c-0.001-15.109,3.688-30.971,10.873-45.617c9.358-19.076,12.05-29.394,12.491-31.245c3.648-1.754,6.647-3.876,9.095-5.979
					c0.895-0.679,1.613-1.486,2.368-2.187c0.37-0.359,0.732-0.711,1.086-1.055c0.338-0.359,0.647-0.732,0.96-1.085
					c0.62-0.714,1.212-1.395,1.779-2.048c0.512-0.695,1-1.358,1.467-1.992c0.972-1.237,1.665-2.481,2.344-3.568
					c0.687-1.083,1.238-2.088,1.693-3.005c1.819-3.671,2.402-5.749,2.7-6.823c0.273-1.086,0.187-1.215,0.078-1.251
					c-0.115-0.038-0.243,0.023-0.704,1.028c-0.484,0.993-1.23,2.97-3.141,6.483c-0.478,0.878-1.048,1.84-1.747,2.878
					c-0.692,1.041-1.392,2.236-2.363,3.42c-0.463,0.607-0.95,1.243-1.459,1.909c-0.56,0.624-1.145,1.277-1.756,1.959
					c-0.309,0.338-0.612,0.696-0.945,1.04c-0.347,0.328-0.701,0.664-1.064,1.007c-0.739,0.669-1.441,1.445-2.313,2.09
					c-2.423,2.042-5.382,4.099-8.966,5.777c-1.292,0.605-2.662,1.163-4.123,1.65c-2.733,0.974-5.814,1.528-9.106,1.67
					c-3.299,0.185-6.835-0.364-10.347-1.6l-0.366-0.13c0.015-0.116,0.031-0.236,0.047-0.35c0.671-5.861,0.021-9.857-0.468-12.483
					c-0.552-2.634-1.071-3.956-1.385-4.627c-0.323-0.669-0.464-0.688-0.571-0.646c-0.005,0.002-0.009,0.005-0.014,0.007
					c0.001-0.002,0.014-0.006,0.012-0.007c-0.093-0.161-1.658-0.123-4.33-0.552c-1.331-0.229-2.941-0.583-4.716-1.239
					c-0.89-0.317-1.813-0.728-2.762-1.208c-0.472-0.246-0.95-0.512-1.425-0.806c-0.255-0.162-0.432-0.27-0.751-0.491
					c-0.105-0.071-0.211-0.155-0.317-0.234c-0.022-0.039-0.044-0.078-0.067-0.117c-0.22-0.396-0.467-0.779-0.666-1.185
					c-0.337-0.842-0.79-1.635-1.02-2.514c-1.139-3.434-1.437-7.11-1.029-10.659c0.383-3.557,1.336-7,2.605-10.236
					c0.629-1.623,1.364-3.185,2.128-4.71c0.404-0.752,0.807-1.499,1.207-2.242c0.448-0.711,0.894-1.418,1.337-2.121
					c0.831-1.444,1.906-2.689,2.865-3.988c0.464-0.665,1.064-1.206,1.582-1.809c0.33-0.349,0.65-0.707,0.973-1.058
					c0.314,0.444,0.582,0.828,0.765,1.094c0.217,0.317,0.331,0.489,0.332,0.49c0.104,0.157,0.266,0.27,0.45,0.314
					c1.973,0.471,3.565,0.689,4.944,0.689c1.921,0.004,3.425-0.441,4.831-1.15c1.41-0.709,2.733-1.654,4.459-2.712
					c0.014-0.009,0.027-0.02,0.042-0.028c2.497-1.55,4.196-3.755,5.281-5.57c1.092-1.828,1.567-3.271,1.58-3.307
					c0.07-0.214,0.04-0.452-0.082-0.641c-0.173-0.268-0.334-0.53-0.501-0.796c3.001-0.523,5.978-0.816,8.926-0.816
					c11.198,0.01,22.015,4.09,32.481,15.199c7.87,8.37,11.403,19.364,11.407,32.308c0.002,12.653-3.399,27.14-9.435,42.656
					c-6.149,15.815-7.706,26.405-7.707,33.085c-0.001,6.679,1.564,9.447,1.634,9.565c0.156,0.268,0.459,0.411,0.765,0.362
					c0.306-0.048,0.55-0.277,0.616-0.581c0.29-1.361,1.114-3.072,2.359-4.942c-0.069,0.512-0.126,0.994-0.161,1.418
					c-0.112,1.291-0.104,2.184-0.064,2.797c0.085,1.225,0.255,1.329,0.383,1.318c0.037-0.003,0.07-0.012,0.102-0.045
					c0.091-0.092,0.17-0.376,0.281-1.251c0.077-0.588,0.179-1.446,0.391-2.682c0.205-1.236,0.528-2.853,1.132-4.923
					c0.572-2.078,1.526-4.586,2.999-7.536c1.495-2.935,3.565-6.323,6.689-9.836c3.13-3.488,7.144-7.311,12.67-10.339
					c5.511-3.104,12.516-5.22,20.62-7.014c8.108-1.829,16.463-3.084,24.477-5.642c4.021-1.2,7.893-2.94,11.457-5.109
					c0.871-0.58,1.74-1.158,2.606-1.736c0.811-0.634,1.629-1.255,2.404-1.92c1.57-1.31,3.069-2.681,4.488-4.105
					c2.855-2.836,5.416-5.849,7.834-8.839c2.432-2.971,4.688-5.996,7.214-8.495c0.638-0.61,1.289-1.195,1.984-1.665
					c0.687-0.486,1.412-0.876,2.158-1.07c0.742-0.204,1.5-0.241,2.239-0.076c0.734,0.192,1.456,0.501,2.12,0.949
					c1.348,0.83,2.302,2.111,2.882,3.525c0.58,1.423,0.774,2.988,0.73,4.517c-0.122,3.072-1.014,6.004-2.173,8.618
					c-1.152,2.63-2.57,4.99-4.06,7.09c-2.979,4.217-6.216,7.412-9.002,9.857c-2.809,2.43-5.197,4.116-6.835,5.211
					c-1.637,1.093-2.501,1.647-2.406,1.68c0.125,0.023,1.186-0.443,2.978-1.492c1.028-0.599,2.308-1.398,3.757-2.423
					c0.659-0.466,1.354-0.98,2.08-1.546c0.461-0.36,0.93-0.733,1.414-1.136c2.914-2.426,6.252-5.642,9.34-9.925
					c1.534-2.144,2.993-4.559,4.203-7.276c0.224-0.52,0.438-1.056,0.641-1.601c1.445,1.023,2.723,2.442,3.549,4.229
					c0.958,2.042,1.308,4.487,1.219,6.993c-0.124,5.049-2.264,10.208-5.487,14.518c-3.226,4.332-6.373,7.05-8.739,9.049
					c-2.4,1.98-4.133,3.196-5.291,4.037c-1.626,1.145-2.143,1.576-2.275,1.805c-0.059,0.101-0.05,0.166-0.016,0.228
					c0.094,0.177,0.351,0.342,2.895-1.096c1.259-0.738,3.092-1.882,5.6-3.846c0.035-0.027,0.074-0.061,0.11-0.09
					c2.46-1.979,5.675-4.711,8.987-9.158c1.764-2.352,3.221-5.006,4.226-7.781c0.181,0.067,0.362,0.121,0.542,0.199
					c1.604,0.694,3.136,1.907,3.972,3.661c0.852,1.745,0.968,3.917,0.565,6.077c-0.413,2.168-1.234,4.35-2.333,6.455
					c-1.027,2.138-2.31,4.183-3.704,6.135c-2.846,3.874-5.475,6.433-7.536,8.253c-2.07,1.819-3.571,2.94-4.587,3.698
					c-1.343,0.982-1.819,1.386-1.962,1.608c-0.074,0.117-0.06,0.186-0.024,0.259c0.089,0.176,0.341,0.357,2.602-0.939
					c0.827-0.484,1.922-1.188,3.311-2.247c0.498-0.379,1.031-0.801,1.606-1.278c2.173-1.813,4.92-4.419,7.865-8.43
					c0.873-1.222,1.693-2.488,2.447-3.789c1.09,0.836,2.041,1.965,2.628,3.383c0.604,1.597,0.753,3.44,0.662,5.346
					c-0.314,3.842-1.724,7.819-4.021,11.2c-2.382,3.338-4.804,5.374-6.669,6.806c-1.89,1.42-3.28,2.235-4.207,2.809
					c-1.302,0.762-1.719,1.066-1.831,1.256c-0.051,0.085-0.045,0.149-0.02,0.218c0.067,0.188,0.278,0.398,2.361-0.484
					c1.027-0.465,2.53-1.209,4.551-2.626c1.038-0.744,2.237-1.677,3.504-2.896c0.655,0.896,1.248,1.977,1.6,3.256
					c0.43,1.518,0.366,3.305-0.173,5.124c-0.524,1.831-1.587,3.663-2.918,5.457c-2.691,3.592-6.565,7.001-11.06,10.275
					c-4.509,3.261-9.664,6.463-15.287,9.43c-5.641,2.947-11.807,5.624-18.352,7.859c-6.544,2.229-13.475,4.022-20.616,5.059
					c-7.129,1.011-14.51,1.346-21.675,0.206c-3.568-0.598-6.885-1.396-9.837-2.565c-2.992-1.09-5.617-2.465-7.858-4.077
					c-4.504-3.211-7.454-7.097-9.498-10.648c-2.031-3.587-3.208-6.885-4.023-9.682c-0.802-2.808-1.256-5.134-1.554-7.023
					c-0.582-3.782-0.668-5.798-0.803-6.844c-0.113-1.051-0.223-1.146-0.362-1.154c-0.132-0.008-0.282,0.082-0.404,1.154
					c-0.101,1.068-0.228,3.131,0.19,7.03c0.216,1.947,0.601,4.353,1.359,7.271c0.774,2.908,1.932,6.352,4.016,10.137
					c2.096,3.746,5.185,7.893,9.956,11.327c2.369,1.723,5.165,3.195,8.283,4.339c3.089,1.228,6.539,2.064,10.236,2.681
					c7.422,1.179,15.001,0.817,22.3-0.24c7.311-1.084,14.383-2.954,21.048-5.278c6.667-2.329,12.935-5.121,18.66-8.202
					c5.72-3.101,10.903-6.418,15.459-9.849c4.529-3.443,8.428-7.049,11.107-10.92c1.342-1.923,2.312-3.963,2.775-5.98
					c0.495-2.015,0.291-4.011-0.3-5.614c-0.446-1.219-1.091-2.213-1.759-3.034c1.012-1.022,2.057-2.225,3.095-3.681
					c2.45-3.604,3.951-7.896,4.201-12.045c0.039-1.102-0.014-2.198-0.177-3.26c2.117,0.513,4.285,0.743,6.423,0.743
					c4.804-0.001,9.464-1.063,13.102-2.224c1.818-0.581,3.381-1.188,4.578-1.704c1.202-0.52,2.016-0.934,2.415-1.182
					c0.322-0.201,0.638-0.383,0.912-0.504c0.274-0.124,0.505-0.178,0.631-0.175c0.09,0.001,0.123,0.015,0.159,0.036
					c0.049,0.029,0.17,0.135,0.285,0.502c0.112,0.359,0.194,0.946,0.193,1.775c0,0.92-0.097,2.14-0.32,3.707
					c-0.556,3.915-2.485,7.758-4.288,10.601c-0.899,1.422-1.766,2.595-2.404,3.411c-0.319,0.406-0.581,0.724-0.763,0.938
					c-0.091,0.107-0.161,0.189-0.208,0.242l-0.069,0.078c-0.218,0.242-0.255,0.599-0.09,0.88c0.164,0.281,0.491,0.425,0.81,0.354
					c0.821-0.184,1.922-0.556,3.15-1.014c2.69-1.007,5.944-2.432,7.499-3.125c0.026,0.3,0.04,0.604,0.04,0.914
					c0.006,3.055-1.244,6.502-2.519,9.153c-0.636,1.326-1.273,2.457-1.749,3.253c-0.238,0.397-0.437,0.712-0.574,0.925
					c-0.069,0.108-0.123,0.189-0.159,0.243l-0.053,0.078c-0.213,0.312-0.16,0.736,0.124,0.986c0.283,0.25,0.711,0.249,0.993-0.002
					c1.476-1.313,3.179-1.61,4.445-1.612c0.449,0,0.821,0.041,1.111,0.083C362.057,295.399,360.266,299.282,358.485,301.76"/>
				<path style="fill:#1D2E42;" d="M162.374,177.102c-0.672-0.07-1.521-0.124-2.344-0.286c-0.533-0.107-0.884-0.173-1.147-0.189
					c0.036-0.264,0.061-0.507,0.066-0.705c0.011-1.148-0.349-1.262-0.699-1.297c-0.305-0.031-0.559-0.027-0.888,0.482
					c-0.07,0.109-0.142,0.233-0.221,0.393c-0.23,0.453-0.502,1.135-0.958,2.102c-0.469,0.956-1.085,2.234-2.231,3.664
					c-1.135,1.438-2.563,2.651-4.054,3.401c-0.756,0.354-1.526,0.602-2.285,0.742c-0.76,0.127-1.5,0.131-2.19,0.077
					c-2.8-0.283-4.438-1.693-4.673-1.361v0.001c-0.157,0.194,0.071,0.751,0.779,1.446c0.706,0.684,1.931,1.461,3.605,1.875
					c0.332,0.073,0.683,0.126,1.045,0.166c-0.036,0.291-0.052,0.629-0.004,1.073c0.12,1.185,0.779,2.313,1.458,2.894
					c0.692,0.588,1.302,0.709,1.45,0.504c0.246-0.327,0.005-0.811-0.276-1.415c-0.276-0.61-0.587-1.376-0.678-2.224
					c-0.036-0.33-0.06-0.586-0.085-0.808c0.946-0.099,1.921-0.34,2.871-0.725c0.354-0.153,0.69-0.346,1.028-0.534
					c0.043,0.097,0.087,0.194,0.14,0.298c0.577,1.139,1.782,1.93,2.695,2.106c0.932,0.181,1.531-0.034,1.555-0.282
					c0.047-0.409-0.43-0.702-0.981-1.088c-0.027-0.019-0.055-0.043-0.082-0.064c-0.496-0.372-1.021-0.853-1.391-1.506
					c-0.021-0.037-0.047-0.068-0.066-0.106c-0.085-0.162-0.154-0.304-0.219-0.439c0.846-0.661,1.614-1.427,2.291-2.26
					c0.156,0.081,0.343,0.165,0.559,0.252c0.171,0.069,0.346,0.139,0.559,0.212c1.111,0.359,2.321,0.521,3.245,0.446
					c0.927-0.067,1.526-0.35,1.502-0.613c-0.032-0.401-0.574-0.618-1.339-0.862c-0.972-0.293-1.869-0.563-2.806-0.846
					c-0.214-0.073-0.398-0.13-0.574-0.182c0.697-1.124,1.112-2.133,1.399-2.947c0.017-0.052,0.027-0.094,0.043-0.144
					c0.274,0.148,0.654,0.29,1.179,0.395c1.047,0.208,2.147,0.099,2.903-0.173c0.763-0.274,1.186-0.657,1.111-0.908
					C163.554,177.28,163.043,177.168,162.374,177.102"/>
				<path style="fill:#1D2E42;" d="M128.313,216.063c-0.618-0.065-2.469,0.812-2.5,1.562c-0.014,0.345,1.342,1.12,2.812,0.719
					C129.313,218.157,130.093,216.25,128.313,216.063"/>
				<path style="fill:#1D2E42;" d="M247.854,318.851c0.672-0.061,1.656-0.199,3.078-0.561c1.416-0.374,3.297-0.916,5.617-2.123
					c1.156-0.608,2.277-1.339,3.262-2.249c0.988-0.896,1.829-2,2.326-3.241c0.259-0.612,0.404-1.264,0.487-1.894
					c0.019-0.618,0.13-1.205,0.059-1.805c-0.007-1.183-0.37-2.334-0.902-3.257c-0.542-0.934-1.323-1.601-2.073-1.99
					c-0.75-0.399-1.451-0.604-2.032-0.692c-0.087-0.014-0.165-0.021-0.246-0.031c0.584-0.243,1.386-0.642,2.479-1.354
					c1.14-0.776,2.675-1.836,4.246-3.786c0.798-0.96,1.415-2.111,1.838-3.32l0.243-0.936c0.082-0.311,0.075-0.641,0.112-0.957
					c0.03-0.32,0.057-0.638,0.02-0.948c-0.03-0.315-0.018-0.62-0.1-0.934c-0.189-1.235-0.865-2.483-1.881-3.187
					c-1.003-0.716-2.113-0.929-3.064-0.992c-1.491-0.072-2.724,0.137-3.685,0.367c0.475-0.324,1.038-0.736,1.729-1.296
					c0.697-0.573,1.528-1.277,2.459-2.194c0.581-0.571,1.2-1.226,1.852-1.987c0.845-0.992,1.624-2.069,2.253-3.249
					c0.204-0.394,0.385-0.807,0.548-1.229c0.326-0.841,0.552-1.733,0.537-2.669c-0.015-1.402-0.555-2.72-1.487-3.654
					c-0.939-0.926-2.119-1.309-3.138-1.475c-1.427-0.192-2.646-0.071-3.632,0.118c0.539-0.343,1.171-0.778,1.935-1.373
					c1.291-1.056,3.049-2.478,4.701-5.049c0.805-1.286,1.413-2.813,1.453-4.443c0.014-0.56-0.062-1.123-0.199-1.66
					c-0.062-0.24-0.132-0.477-0.22-0.702c-0.154-0.359-0.296-0.719-0.468-1.066c-0.226-0.33-0.451-0.656-0.676-0.981
					c-0.298-0.275-0.587-0.56-0.901-0.802c-0.352-0.184-0.69-0.412-1.053-0.532c-0.734-0.253-1.463-0.337-2.151-0.33
					c-1.38,0.02-2.574,0.362-3.646,0.692c-2.138,0.692-3.796,1.457-4.977,1.933c-1.173,0.486-1.853,0.726-1.806,0.848
					c0,0,0.002,0,0.002,0.001c0.063,0.15,0.85,0.138,2.128-0.161c1.276-0.286,3.018-0.889,5.077-1.403
					c1.023-0.236,2.148-0.487,3.264-0.441c1.111,0.038,2.175,0.378,2.855,1.253c0.153,0.236,0.309,0.475,0.464,0.714
					c0.114,0.28,0.228,0.561,0.342,0.845c0.204,0.566,0.304,1.154,0.283,1.762c-0.046,1.212-0.517,2.453-1.225,3.581
					c-1.446,2.26-3.079,3.673-4.252,4.732c-1.206,1.048-2.068,1.717-2.636,2.195c-0.895,0.737-1.067,1.015-1.043,1.201
					c0.002,0.022,0.006,0.044,0.013,0.063c-0.081,0.058-0.121,0.104-0.106,0.133c0.026,0.05,0.132,0.071,0.273,0.081
					c0.082,0.046,0.211,0.059,0.436-0.001c0.303-0.016,0.677-0.048,1.152-0.087c1.104-0.085,2.709-0.227,4.438,0.153
					c0.845,0.212,1.694,0.59,2.28,1.254c0.315,0.313,0.511,0.736,0.683,1.176c0.063,0.235,0.126,0.473,0.19,0.713
					c0.021,0.241,0.064,0.478,0.043,0.73c-0.069,2.034-1.486,4.19-3.038,6.028c-1.591,1.86-2.992,3.127-4.033,4.092
					c-1.05,0.96-1.778,1.598-2.251,2.058c-0.417,0.398-0.633,0.655-0.74,0.841c-0.138,0.236-0.092,0.351-0.017,0.462
					c0.081,0.116,0.186,0.216,0.518,0.122c0.296,0.003,0.711-0.025,1.229-0.067c1.037-0.075,2.526-0.237,4.17-0.006
					c0.811,0.121,1.655,0.381,2.284,0.904c0.633,0.512,1.033,1.298,1.156,2.26c0.053,0.474,0.095,0.998,0.015,1.487
					c-0.039,0.248-0.024,0.505-0.102,0.749l-0.208,0.743c-0.364,0.972-0.869,1.934-1.578,2.782
					c-1.381,1.721-2.788,2.764-3.809,3.558c-1.045,0.781-1.786,1.278-2.276,1.637c-0.565,0.408-0.791,0.642-0.866,0.811
					c-0.057,0.126-0.032,0.218,0.01,0.311c0.052,0.112,0.128,0.216,0.367,0.218c0.294,0.103,0.749,0.229,1.326,0.448
					c0.978,0.378,2.41,1.081,3.119,2.608c0.336,0.755,0.572,1.651,0.528,2.661c0.03,0.494-0.091,1.021-0.122,1.548
					c-0.096,0.496-0.219,0.993-0.442,1.468c-0.835,1.934-2.785,3.475-4.9,4.582c-2.137,1.114-3.92,1.684-5.251,2.12
					c-1.277,0.395-2.171,0.67-2.883,0.889c-0.536,0.172-0.839,0.305-1.016,0.421c-0.234,0.153-0.245,0.276-0.226,0.412
					C246.405,318.728,246.507,318.955,247.854,318.851"/>
			</g>
		</g>
		<g>
			<path style="fill:#FFFFFF;" d="M127.092,263.637l-1.581-4.274l-1.355,3.839c-0.075,0.212-0.243,0.381-0.455,0.456l-4.198,1.499
				l4.249,1.883c0.194,0.086,0.343,0.25,0.409,0.451l1.237,3.767l1.617-3.985c0.075-0.183,0.217-0.328,0.398-0.406l3.721-1.603
				l-3.572-1.171C127.346,264.02,127.171,263.852,127.092,263.637z"/>
			<path style="fill:#FFFFFF;" d="M179.576,124.69l-1.581-4.276l-1.355,3.839c-0.075,0.212-0.243,0.381-0.455,0.457l-4.198,1.499
				l4.249,1.882c0.194,0.085,0.343,0.25,0.409,0.452l1.237,3.766l1.617-3.985c0.075-0.183,0.217-0.329,0.398-0.407l3.721-1.603
				l-3.572-1.172C179.83,125.071,179.655,124.903,179.576,124.69z"/>
			<path style="fill:#FFFFFF;" d="M258.465,208.461l-1.58-4.276l-1.355,3.839c-0.075,0.212-0.243,0.381-0.455,0.457l-4.198,1.499
				l4.249,1.882c0.194,0.085,0.344,0.25,0.409,0.451l1.237,3.767l1.616-3.985c0.074-0.183,0.218-0.329,0.398-0.407l3.721-1.603
				l-3.571-1.172C258.719,208.842,258.544,208.674,258.465,208.461z"/>
			<path style="fill:#FFFFFF;" d="M347.319,174.821l-1.041-2.815l-0.892,2.526c-0.05,0.142-0.162,0.254-0.304,0.305l-2.764,0.987
				l2.798,1.24c0.129,0.057,0.229,0.167,0.272,0.301l0.815,2.479l1.065-2.624c0.049-0.122,0.145-0.219,0.265-0.271l2.449-1.055
				l-2.352-0.772C347.488,175.075,347.372,174.963,347.319,174.821z"/>
			<path style="fill:#FFFFFF;" d="M230.636,184.956l-0.921-2.491l-0.776,2.201c-0.063,0.176-0.203,0.317-0.38,0.38l-2.469,0.882
				l2.512,1.113c0.161,0.072,0.286,0.209,0.341,0.377l0.708,2.154l0.936-2.307c0.062-0.153,0.181-0.274,0.332-0.339l2.146-0.925
				l-2.037-0.668C230.848,185.274,230.702,185.134,230.636,184.956z"/>
			<path style="fill:#FFFFFF;" d="M379.081,264.546l0.879,2.676l1.154-2.845c0.061-0.152,0.181-0.273,0.332-0.339l2.65-1.142
				l-2.534-0.831c-0.18-0.059-0.325-0.199-0.391-0.377l-1.132-3.059l-0.964,2.727c-0.062,0.178-0.202,0.318-0.379,0.382
				l-3.014,1.078l3.057,1.352C378.901,264.241,379.026,264.379,379.081,264.546z"/>
			<path style="fill:#FFFFFF;" d="M155.858,105.995l0.879,2.676l1.154-2.845c0.061-0.152,0.181-0.273,0.332-0.339l2.65-1.142
				l-2.534-0.831c-0.18-0.06-0.325-0.199-0.391-0.377l-1.132-3.059l-0.964,2.728c-0.062,0.178-0.202,0.318-0.379,0.382l-3.014,1.078
				l3.057,1.353C155.678,105.69,155.803,105.828,155.858,105.995z"/>
			<path style="fill:#FFFFFF;" d="M103.088,139.188l-0.921-2.491l-0.777,2.201c-0.062,0.176-0.202,0.317-0.379,0.38l-2.47,0.882
				l2.513,1.113c0.162,0.071,0.286,0.209,0.341,0.377l0.707,2.154l0.937-2.307c0.062-0.153,0.18-0.274,0.332-0.34l2.145-0.923
				l-2.037-0.669C103.299,139.505,103.154,139.365,103.088,139.188z"/>
			<path style="fill:#FFFFFF;" d="M99.47,212.623l-0.921-2.491l-0.776,2.2c-0.063,0.177-0.203,0.318-0.38,0.381l-2.47,0.881
				l2.513,1.114c0.162,0.071,0.286,0.209,0.341,0.376l0.707,2.155l0.937-2.308c0.062-0.152,0.181-0.274,0.332-0.339l2.146-0.924
				l-2.038-0.668C99.681,212.941,99.536,212.8,99.47,212.623z"/>
			<path style="fill:#FFFFFF;" d="M97.795,258.299l-0.921-2.49l-0.777,2.2c-0.062,0.177-0.202,0.318-0.379,0.381l-2.469,0.882
				l2.512,1.112c0.161,0.071,0.286,0.209,0.341,0.376l0.708,2.155l0.936-2.308c0.062-0.152,0.18-0.273,0.332-0.339l2.146-0.924
				l-2.037-0.669C98.006,258.616,97.861,258.477,97.795,258.299z"/>
			<path style="fill:#FFFFFF;" d="M349.26,234.31l-1.582-4.276l-1.355,3.839c-0.075,0.213-0.243,0.381-0.455,0.457l-4.197,1.499
				l4.249,1.882c0.193,0.086,0.343,0.251,0.409,0.452l1.237,3.766l1.616-3.985c0.074-0.183,0.217-0.329,0.398-0.407l3.721-1.602
				l-3.572-1.173C349.513,234.692,349.339,234.524,349.26,234.31z"/>
			<path style="fill:#FFFFFF;" d="M278.155,173.345l-1.168-3.155l-0.996,2.819c-0.06,0.177-0.201,0.317-0.378,0.381l-3.108,1.11
				l3.151,1.395c0.161,0.071,0.286,0.209,0.341,0.376l0.907,2.766l1.192-2.938c0.061-0.152,0.181-0.273,0.332-0.339l2.737-1.179
				l-2.62-0.86C278.366,173.663,278.221,173.523,278.155,173.345z"/>
			<path style="fill:#FFFFFF;" d="M389.797,287.862l-1.53-4.136l-1.31,3.711c-0.074,0.211-0.243,0.38-0.455,0.455l-4.065,1.451
				l4.116,1.823c0.193,0.085,0.343,0.251,0.409,0.451l1.194,3.641l1.564-3.855c0.074-0.183,0.217-0.328,0.398-0.406l3.597-1.551
				l-3.45-1.132C390.05,288.244,389.876,288.076,389.797,287.862z"/>
		</g>
		<g>
			<g>
				<path style="fill:#F9FBFC;" d="M100.637,285.702c0.07-0.367,0.111-0.735,0.111-1.108c-0.001-1.695-0.717-3.226-1.892-4.349
					c-1.175-1.12-2.802-1.818-4.61-1.818c-0.814,0-1.591,0.148-2.315,0.411c-0.191,0.069-0.403,0.058-0.585-0.031
					c-0.183-0.09-0.322-0.249-0.384-0.443c-0.808-2.501-3.274-4.354-6.216-4.353c-1.719,0-3.271,0.637-4.433,1.666
					c-0.166,0.147-0.393,0.214-0.613,0.18c-0.22-0.034-0.415-0.167-0.529-0.358c-1.26-2.121-3.656-3.572-6.425-3.571
					c-3.911,0.001-7.072,2.885-7.346,6.48c-0.018,0.235-0.146,0.448-0.344,0.574c-0.199,0.127-0.446,0.153-0.666,0.07
					c-0.929-0.347-1.947-0.541-3.019-0.541c-2.186,0-4.153,0.801-5.566,2.076c-1.414,1.279-2.266,3.013-2.267,4.924
					c0,0.424,0.049,0.842,0.133,1.259c0.074,0.364-0.13,0.728-0.478,0.854l-2.897,1.053h3.678h14.795h20.295h10.365h6.833
					l-5.175-2.14C100.758,286.401,100.57,286.051,100.637,285.702z"/>
				<path style="fill:#324668;" d="M99.429,290.177h10.609c0.358,0,0.666-0.253,0.736-0.605c0.069-0.351-0.119-0.702-0.449-0.839
					l-8.124-3.359c0.028-0.255,0.047-0.515,0.047-0.78c0-2.126-0.907-4.053-2.357-5.434c-1.449-1.383-3.447-2.233-5.645-2.233
					c-0.745,0-1.464,0.102-2.146,0.286c-1.218-2.771-4.049-4.701-7.354-4.702c-1.786,0-3.434,0.569-4.766,1.521
					c-1.611-2.182-4.247-3.604-7.234-3.605c-4.323-0.001-7.94,2.971-8.711,6.939c-0.845-0.229-1.738-0.355-2.664-0.355
					c-2.553,0-4.877,0.935-6.571,2.463c-1.694,1.526-2.763,3.668-2.762,6.037c0,0.312,0.025,0.615,0.062,0.914l-6.318,2.297
					c-0.343,0.125-0.546,0.476-0.483,0.835c0.064,0.359,0.375,0.62,0.739,0.62h7.936h14.795h20.295H99.429z M53.974,288.677h-3.678
					l2.897-1.053c0.348-0.127,0.552-0.49,0.478-0.854c-0.084-0.417-0.133-0.835-0.133-1.259c0.001-1.911,0.853-3.645,2.267-4.924
					c1.413-1.275,3.38-2.076,5.566-2.076c1.072,0,2.09,0.194,3.019,0.541c0.22,0.083,0.467,0.057,0.666-0.07
					c0.198-0.126,0.326-0.339,0.344-0.574c0.274-3.596,3.435-6.479,7.346-6.48c2.769-0.001,5.165,1.45,6.425,3.571
					c0.114,0.192,0.309,0.324,0.529,0.358c0.22,0.034,0.447-0.032,0.613-0.18c1.162-1.029,2.714-1.666,4.433-1.666
					c2.942-0.001,5.408,1.852,6.216,4.353c0.062,0.194,0.201,0.353,0.384,0.443c0.182,0.089,0.394,0.101,0.585,0.031
					c0.724-0.263,1.501-0.411,2.315-0.411c1.808,0,3.435,0.698,4.61,1.818c1.175,1.123,1.891,2.653,1.892,4.349
					c0,0.373-0.041,0.741-0.111,1.108c-0.067,0.349,0.121,0.699,0.45,0.835l5.175,2.14h-6.833H89.063H68.769H53.974z"/>
			</g>
			<g>
				<path style="fill:#F9FBFC;" d="M98.967,184.993l4.736,0.005l-3.793-1.819c-0.315-0.15-0.484-0.497-0.408-0.838
					c0.164-0.744,0.256-1.511,0.256-2.298c0-2.937-1.188-5.588-3.111-7.513c-1.926-1.924-4.577-3.112-7.514-3.112
					c-2.181,0-4.202,0.657-5.889,1.783c-0.225,0.151-0.517,0.168-0.758,0.045c-0.24-0.123-0.398-0.369-0.408-0.639
					c-0.069-1.773-0.561-3.59-1.537-5.282c-2.057-3.564-5.659-5.58-9.159-5.577c-1.515,0-3.01,0.373-4.375,1.161
					c-2.042,1.18-3.425,3.085-4.078,5.31c-0.113,0.386-0.51,0.614-0.901,0.517c-0.374-0.094-0.737-0.151-1.103-0.151
					c-1.297,0-2.458,0.541-3.297,1.411c-0.248,0.258-0.643,0.305-0.944,0.112c-1.259-0.804-2.742-1.273-4.343-1.273
					c-2.234,0-4.25,0.903-5.715,2.367c-1.464,1.465-2.367,3.481-2.368,5.716c0,0.085,0.012,0.206,0.02,0.371
					c0.013,0.277-0.128,0.538-0.366,0.68c-0.239,0.142-0.536,0.14-0.773-0.004c-1.088-0.662-2.352-1.047-3.714-1.047
					c-1.982,0-3.768,0.801-5.068,2.099c-1.295,1.297-2.095,3.08-2.098,5.058l0.003,0.071c0.017,0.33-0.185,0.632-0.496,0.743
					l-5.691,2.033l6.303,0.006l14.089,0.014l32.822,0.032L98.967,184.993z"/>
				<path style="fill:#DAE6EF;" d="M83.343,179.511c-1.552,0.048-3.028,0.38-4.535,0.722c-0.249,0.057-0.562-0.073-0.615-0.349
					c-0.671-3.499-2.749-8.034-6.898-8.283c-4.35-0.261-7.205,3.352-8.939,6.903c-0.113,0.232-0.472,0.326-0.684,0.179
					c-4.341-3.003-13.184-4.453-12.498,3.318c0.039,0.44-0.57,0.655-0.854,0.353c-2.816-2.997-6.629-0.142-6.563,2.583l4.708,0.005
					l32.822,0.032l7.06,0.007C88.114,182.775,86.564,179.412,83.343,179.511z"/>
				<path style="fill:#324668;" d="M98.965,186.493l8.043,0.008c0.35,0.001,0.654-0.241,0.732-0.583
					c0.077-0.343-0.091-0.691-0.407-0.843l-6.267-3.005c0.114-0.659,0.192-1.332,0.192-2.027c0-6.697-5.428-12.125-12.125-12.125
					c-2.051-0.001-3.982,0.518-5.676,1.419c-0.218-1.616-0.737-3.237-1.618-4.762c-2.315-4.007-6.384-6.325-10.457-6.327
					c-1.762-0.001-3.525,0.438-5.125,1.362c-2.194,1.266-3.728,3.256-4.546,5.535c-0.252-0.037-0.514-0.06-0.786-0.06
					c-1.513-0.001-2.896,0.56-3.956,1.473c-1.374-0.763-2.944-1.224-4.628-1.223c-5.021,0-9.132,3.864-9.542,8.779
					c-1.037-0.442-2.175-0.697-3.374-0.696c-4.639,0-8.415,3.647-8.645,8.23l-9.274,3.313c-0.343,0.123-0.549,0.475-0.487,0.834
					c0.062,0.36,0.374,0.622,0.739,0.623l10.618,0.01l14.089,0.014l32.823,0.032L98.965,186.493z M32.378,184.928l-6.303-0.006
					l5.691-2.033c0.31-0.111,0.513-0.413,0.496-0.743l-0.003-0.071c0.003-1.978,0.803-3.761,2.098-5.058
					c1.3-1.298,3.086-2.099,5.068-2.099c1.362,0,2.626,0.385,3.714,1.047c0.237,0.144,0.534,0.146,0.773,0.004
					c0.238-0.142,0.379-0.403,0.366-0.68c-0.008-0.165-0.02-0.286-0.02-0.371c0.001-2.235,0.904-4.251,2.368-5.716
					c1.465-1.464,3.481-2.367,5.715-2.367c1.601,0,3.084,0.469,4.343,1.273c0.301,0.193,0.696,0.146,0.944-0.112
					c0.839-0.87,2-1.411,3.297-1.411c0.366,0,0.729,0.057,1.103,0.151c0.391,0.097,0.788-0.131,0.901-0.517
					c0.653-2.225,2.036-4.13,4.078-5.31c1.365-0.788,2.86-1.161,4.375-1.161c3.5-0.003,7.102,2.013,9.159,5.577
					c0.976,1.692,1.468,3.509,1.537,5.282c0.01,0.27,0.168,0.516,0.408,0.639c0.241,0.123,0.533,0.106,0.758-0.045
					c1.687-1.126,3.708-1.783,5.889-1.783c2.937,0,5.588,1.188,7.514,3.112c1.923,1.925,3.111,4.576,3.111,7.513
					c0,0.787-0.092,1.554-0.256,2.298c-0.076,0.341,0.093,0.688,0.408,0.838l3.793,1.819l-4.736-0.005l-19.678-0.019l-32.822-0.032
					L32.378,184.928z"/>
			</g>
			<g>
				<path style="fill:#F9FBFC;" d="M229.338,95.938c0.022-0.177,0.039-0.285,0.038-0.339c-0.003-1.581-1.278-2.861-2.857-2.873
					l-0.028,0.003c-0.203,0.019-0.407-0.045-0.561-0.177c-0.155-0.132-0.25-0.324-0.262-0.526c-0.201-3.479-3.077-6.241-6.605-6.24
					c-2.332,0-4.375,1.206-5.559,3.031c-0.139,0.214-0.376,0.343-0.632,0.342c-0.256-0.001-0.492-0.131-0.629-0.346
					c-1.069-1.67-2.929-2.777-5.055-2.777c-2.934-0.001-5.373,2.11-5.893,4.892c-0.04,0.221-0.181,0.413-0.378,0.521
					c-0.198,0.107-0.435,0.12-0.643,0.036c-0.605-0.249-1.265-0.386-1.961-0.386c-2.796,0-5.057,2.211-5.118,4.948
					c-0.007,0.31-0.202,0.582-0.494,0.688l-2.48,0.899l2.653-0.017l16.923-0.106l4.743-0.03l14.537-0.091l2.471-0.016l-1.728-0.646
					C229.498,96.607,229.298,96.279,229.338,95.938z"/>
				<path style="fill:#324668;" d="M185.881,99.16l7.003-0.044l16.922-0.106l4.744-0.03l14.537-0.091l6.544-0.041
					c0.362-0.003,0.67-0.262,0.733-0.619c0.064-0.357-0.136-0.707-0.475-0.834l-5.021-1.878c-0.041-2.175-1.667-3.945-3.772-4.234
					c-0.55-3.952-3.928-6.997-8.033-6.998c-2.483,0-4.703,1.12-6.191,2.876c-1.373-1.602-3.407-2.626-5.684-2.626
					c-3.373,0.002-6.216,2.23-7.159,5.294c-0.548-0.146-1.121-0.231-1.716-0.231c-3.424,0-6.238,2.578-6.579,5.891l-6.114,2.216
					c-0.342,0.124-0.547,0.479-0.482,0.837C185.202,98.901,185.516,99.164,185.881,99.16 M192.701,96.734
					c0.292-0.106,0.487-0.378,0.494-0.688c0.061-2.737,2.322-4.948,5.118-4.948c0.696,0,1.356,0.137,1.961,0.386
					c0.208,0.084,0.445,0.071,0.643-0.036c0.197-0.108,0.337-0.3,0.378-0.521c0.52-2.782,2.96-4.893,5.893-4.892
					c2.126,0,3.986,1.107,5.055,2.777c0.137,0.215,0.373,0.345,0.629,0.346c0.256,0.001,0.493-0.128,0.632-0.342
					c1.184-1.825,3.227-3.031,5.559-3.031c3.528-0.001,6.404,2.761,6.605,6.24c0.012,0.202,0.107,0.394,0.262,0.526
					c0.154,0.132,0.358,0.196,0.561,0.177l0.028-0.003c1.579,0.012,2.854,1.292,2.857,2.873c0.001,0.054-0.016,0.162-0.038,0.339
					c-0.04,0.342,0.16,0.67,0.482,0.79l1.728,0.646l-2.471,0.016l-14.537,0.091l-4.743,0.03l-16.923,0.106l-2.653,0.017
					L192.701,96.734z"/>
			</g>
			<g>
				<path style="fill:#F7DE72;" d="M278.485,122.747c2.846,0,5.509,0.656,7.813,1.787c0.015-8.48,6.891-15.349,15.374-15.349
					c2.925-0.001,5.657,0.828,7.984,2.248c1.254-2.163,3.585-3.622,6.266-3.623c0.692,0,1.361,0.102,1.995,0.285
					c2.784-7.531,10.006-12.909,18.505-12.91c0.26,0,0.513,0.029,0.77,0.038c-1.699-4.287-4.248-8.144-7.457-11.351
					c-6.064-6.064-14.435-9.812-23.688-9.812c-9.253,0-17.623,3.748-23.688,9.812c-6.064,6.065-9.812,14.435-9.812,23.688
					c0,5.53,1.348,10.74,3.72,15.336C276.994,122.808,277.73,122.747,278.485,122.747z"/>
				<path style="fill:#F9FBFC;" d="M396.799,142.805l-10.751-6.041c-0.276-0.155-0.426-0.471-0.371-0.783
					c0.161-0.925,0.24-1.861,0.24-2.798c0.004-6.876-4.285-13.896-11.593-17.563c-3.202-1.608-6.574-2.368-9.818-2.368
					c-3.131,0-6.14,0.708-8.759,2.041c-0.23,0.117-0.506,0.108-0.727-0.026c-0.222-0.133-0.359-0.372-0.363-0.63
					c-0.161-9.94-8.257-17.953-18.234-17.952c-8.101-0.002-14.959,5.283-17.343,12.587c-0.064,0.199-0.208,0.36-0.397,0.448
					c-0.189,0.087-0.404,0.093-0.598,0.014c-0.67-0.272-1.396-0.424-2.162-0.424c-2.373-0.001-4.408,1.438-5.287,3.489
					c-0.089,0.207-0.265,0.363-0.48,0.425c-0.217,0.063-0.448,0.026-0.634-0.102c-2.234-1.536-4.932-2.437-7.849-2.437
					c-3.834,0-7.298,1.552-9.813,4.064c-2.511,2.513-4.063,5.977-4.063,9.811c0,0.392,0.026,0.79,0.061,1.198
					c0.024,0.281-0.11,0.55-0.35,0.699c-0.24,0.15-0.54,0.153-0.782,0.008c-2.319-1.388-5.159-2.218-8.241-2.218
					c-3.954-0.001-7.52,1.354-10.079,3.513c-2.561,2.162-4.107,5.1-4.108,8.331c0,0.392,0.024,0.781,0.07,1.166
					c0.039,0.329-0.143,0.644-0.445,0.776l-10.412,4.533l12.771,0.021l24.374,0.041l61.563,0.103l30.868,0.051L396.799,142.805z"/>
				<path style="fill:#DAE6EF;" d="M354.097,139.063c-0.216,0.441-0.967,0.237-0.932-0.252c0.548-7.632,0.583-18.616-7.389-22.662
					c-4.545-2.306-10.801-2.595-14.76,1.063c-3.588,3.313-5.023,8.099-5.352,12.85c-0.04,0.583-0.777,0.656-0.982,0.133
					c-2.676-6.831-9.133-2.67-11.336,2.12c-0.189,0.412-0.803,0.265-0.914-0.12c-1.249-4.325-8.01-9.061-12.341-5.975
					c-3.611,2.574-4.142,7.756-4.177,11.842c-0.003,0.372-0.425,0.632-0.752,0.432c-3.357-2.045-7.739-1.576-10.603,1.175
					c-0.947,0.91-1.617,1.917-1.979,2.948l8.074,0.014l61.563,0.103l17.145,0.028C368.114,136.65,357.977,131.114,354.097,139.063z"
					/>
				<path style="fill:#324668;" d="M249.922,144.06l16.357,0.027l24.374,0.041l61.563,0.103l30.868,0.051l16.588,0.028
					c0.342,0,0.64-0.229,0.727-0.56c0.086-0.33-0.059-0.676-0.358-0.844l-12.816-7.202c0.119-0.837,0.193-1.678,0.193-2.521
					c-0.004-7.501-4.641-14.995-12.419-18.904c-3.411-1.712-7.015-2.527-10.492-2.527c-2.964,0-5.836,0.593-8.424,1.727
					c-0.69-9.413-7.948-16.986-17.228-18.129c-4.955-13.308-17.771-22.79-32.807-22.79c-19.33,0-35,15.67-35,35
					c0,5.604,1.324,10.895,3.666,15.592c-2.786,0.585-5.29,1.788-7.274,3.461c-2.846,2.395-4.643,5.754-4.642,9.478
					c0,0.263,0.028,0.518,0.047,0.775l-13.221,5.756c-0.326,0.142-0.508,0.492-0.436,0.84
					C249.261,143.81,249.565,144.059,249.922,144.06 M272.548,107.56c0-9.253,3.748-17.623,9.812-23.688
					c6.065-6.064,14.435-9.812,23.688-9.812c9.253,0,17.623,3.748,23.688,9.812c3.209,3.207,5.758,7.064,7.457,11.351
					c-0.257-0.009-0.51-0.038-0.77-0.038c-8.499,0.001-15.721,5.379-18.505,12.91c-0.634-0.183-1.303-0.285-1.995-0.285
					c-2.681,0.001-5.012,1.46-6.266,3.623c-2.327-1.42-5.06-2.249-7.984-2.248c-8.483,0-15.359,6.869-15.374,15.349
					c-2.305-1.131-4.968-1.787-7.813-1.787c-0.755,0-1.491,0.061-2.218,0.149C273.896,118.3,272.548,113.09,272.548,107.56
					 M263.923,138.033c0.303-0.132,0.484-0.447,0.445-0.776c-0.046-0.385-0.07-0.774-0.07-1.166
					c0.001-3.231,1.548-6.169,4.108-8.331c2.56-2.159,6.125-3.514,10.079-3.513c3.082,0,5.922,0.83,8.241,2.218
					c0.242,0.145,0.542,0.142,0.782-0.008c0.239-0.149,0.374-0.418,0.35-0.699c-0.034-0.408-0.061-0.806-0.061-1.198
					c0-3.834,1.552-7.298,4.063-9.811c2.515-2.512,5.979-4.064,9.813-4.064c2.917,0,5.614,0.901,7.849,2.437
					c0.186,0.128,0.417,0.165,0.634,0.102c0.216-0.062,0.392-0.218,0.48-0.425c0.879-2.051,2.914-3.49,5.287-3.489
					c0.766,0,1.492,0.152,2.162,0.424c0.193,0.079,0.408,0.073,0.598-0.014c0.19-0.088,0.333-0.249,0.397-0.448
					c2.384-7.304,9.242-12.589,17.343-12.587c9.978-0.001,18.073,8.012,18.234,17.952c0.004,0.258,0.142,0.497,0.363,0.63
					c0.221,0.134,0.497,0.143,0.727,0.026c2.619-1.333,5.628-2.041,8.759-2.041c3.244,0,6.616,0.76,9.818,2.368
					c7.308,3.667,11.597,10.687,11.593,17.563c0,0.937-0.079,1.873-0.24,2.798c-0.055,0.312,0.095,0.628,0.371,0.783l10.751,6.041
					l-13.713-0.023l-30.868-0.051l-61.563-0.103l-24.374-0.041l-12.771-0.021L263.923,138.033z"/>
			</g>
			<g>
				<path style="fill:#F9FBFC;" d="M401.546,202.969c0.038-0.193,0.059-0.388,0.059-0.586c-0.003-1.656-1.343-2.997-2.999-3h-0.004
					l-0.037,0.005l-0.18,0.021c-0.198,0.016-0.393-0.047-0.545-0.178c-0.152-0.13-0.245-0.312-0.261-0.512
					c-0.254-3.31-3.016-5.92-6.391-5.919c-2.247,0-4.217,1.154-5.367,2.904c-0.131,0.2-0.351,0.325-0.588,0.338
					c-0.238,0.012-0.47-0.091-0.62-0.275c-1.148-1.405-2.887-2.301-4.842-2.301c-2.78-0.001-5.134,1.818-5.945,4.328
					c-0.076,0.236-0.266,0.421-0.504,0.49c-0.238,0.069-0.497,0.016-0.69-0.143c-0.823-0.682-1.875-1.091-3.028-1.091
					c-1.314,0-2.497,0.53-3.358,1.391c-0.862,0.862-1.392,2.045-1.392,3.359c0,0.222,0.022,0.448,0.057,0.686
					c0.051,0.349-0.147,0.686-0.478,0.81l-3.547,1.337h4.551h8.334h1.902h8.195h3.681h13.284h3.278l-2.105-0.819
					C401.67,203.681,401.475,203.327,401.546,202.969z"/>
				<path style="fill:#324668;" d="M398.989,197.922c-0.618-3.756-3.87-6.621-7.801-6.622c-2.433,0-4.607,1.101-6.058,2.827
					c-1.392-1.335-3.279-2.161-5.359-2.161c-3.098,0.001-5.756,1.826-6.996,4.453c-0.93-0.549-2.014-0.869-3.171-0.869
					c-3.452,0-6.249,2.798-6.25,6.25c0,0.103,0.018,0.192,0.023,0.291l-6.871,2.59c-0.339,0.128-0.538,0.48-0.474,0.836
					c0.065,0.357,0.376,0.616,0.738,0.616h8.666h8.334h1.902h8.195h3.681h13.284h7.27c0.36,0,0.671-0.258,0.736-0.611
					c0.067-0.354-0.129-0.707-0.464-0.838l-5.296-2.064c0.004-0.08,0.023-0.155,0.023-0.238
					C403.103,200.029,401.292,198.121,398.989,197.922 M404.112,204.633h-3.278H387.55h-3.681h-8.195h-1.902h-8.334h-4.551
					l3.547-1.337c0.33-0.124,0.528-0.461,0.478-0.81c-0.035-0.238-0.057-0.464-0.057-0.686c0-1.314,0.529-2.497,1.392-3.359
					c0.861-0.861,2.045-1.391,3.358-1.391c1.153,0,2.205,0.409,3.028,1.091c0.192,0.159,0.451,0.212,0.69,0.143
					c0.238-0.069,0.428-0.254,0.504-0.49c0.811-2.51,3.165-4.329,5.945-4.328c1.955,0,3.693,0.896,4.842,2.301
					c0.15,0.184,0.382,0.287,0.62,0.275c0.237-0.013,0.457-0.138,0.588-0.338c1.15-1.75,3.12-2.904,5.367-2.904
					c3.375-0.001,6.137,2.609,6.391,5.919c0.016,0.2,0.108,0.382,0.261,0.512c0.152,0.131,0.347,0.194,0.545,0.178l0.18-0.021
					l0.037-0.005h0.004c1.656,0.003,2.996,1.344,2.999,3c0,0.198-0.02,0.393-0.059,0.586c-0.071,0.358,0.124,0.712,0.462,0.845
					L404.112,204.633z"/>
			</g>
			<g>
				<path style="fill:#F9FBFC;" d="M469.053,266.852c0.202-0.561,0.316-1.157,0.316-1.78c0-1.452-0.587-2.76-1.538-3.712
					c-0.951-0.95-2.256-1.535-3.706-1.537l-0.053,0.002c-0.363,0.017-0.686-0.228-0.767-0.583c-0.91-4.008-4.486-7.004-8.77-7.003
					c-2.761,0-5.225,1.243-6.879,3.202c-0.163,0.192-0.416,0.293-0.668,0.261c-0.251-0.032-0.472-0.19-0.581-0.419
					c-1.697-3.525-5.286-5.962-9.456-5.961c-5.146-0.002-9.419,3.707-10.318,8.592c-0.052,0.284-0.265,0.515-0.544,0.589
					c-0.28,0.074-0.579-0.02-0.766-0.24c-1.395-1.647-3.465-2.69-5.788-2.69c-2.097,0-3.988,0.848-5.362,2.221
					c-1.374,1.375-2.222,3.266-2.222,5.362c0,1.087,0.233,2.114,0.645,3.05c0.165,0.375,0,0.811-0.371,0.983l-4.786,2.217h7.586
					h9.021h8.459h8.895h9.201h7.869h2.472h6.354h6.183l-4-1.602C469.102,267.652,468.915,267.232,469.053,266.852z"/>
				<path style="fill:#DAE6EF;" d="M458.75,269.404c0.77-1.475,0.677-3.07-1.476-4.23c-2.655-1.432-5.612-1.11-8.207,0.288
					c-0.279,0.151-0.65,0.022-0.734-0.299c-1.125-4.326-5.457-4.815-8.664-2.279c-0.307,0.242-0.695,0.155-0.836-0.221
					c-1.212-3.261-4.048-5.996-7.559-3.783c-2.659,1.678-4.234,4.47-4.727,7.533c-0.053,0.325-0.479,0.447-0.734,0.299
					c-2.179-1.263-7.105-2.677-7.078,1.502c0.003,0.413,0.049,0.81,0.131,1.19H458.75z"/>
				<path style="fill:#324668;" d="M477.648,269.458l-6.995-2.801c0.126-0.51,0.216-1.034,0.216-1.586
					c-0.001-3.561-2.759-6.47-6.254-6.725c-1.258-4.392-5.284-7.607-10.079-7.608c-2.832,0-5.402,1.127-7.289,2.95
					c-2.091-3.508-5.911-5.867-10.295-5.867c-5.406,0.001-9.96,3.581-11.461,8.496c-1.594-1.393-3.673-2.246-5.955-2.246
					c-5.017,0-9.083,4.065-9.084,9.083c0,1.041,0.186,2.036,0.509,2.966l-7.24,3.353c-0.318,0.147-0.492,0.499-0.417,0.842
					c0.075,0.343,0.382,0.589,0.732,0.589h10.989h9.021h8.459h8.895h9.201h7.869h2.472h6.354h10.073c0.36,0,0.668-0.255,0.736-0.608
					C478.174,269.942,477.982,269.591,477.648,269.458 M467.296,269.404h-6.354h-2.472h-7.869H441.4h-8.895h-8.459h-9.021h-7.586
					l4.786-2.217c0.371-0.173,0.536-0.608,0.371-0.983c-0.412-0.935-0.645-1.963-0.645-3.05c0-2.097,0.848-3.987,2.222-5.362
					c1.374-1.373,3.266-2.221,5.362-2.221c2.323,0,4.394,1.044,5.788,2.69c0.186,0.221,0.485,0.314,0.766,0.24
					c0.279-0.074,0.492-0.305,0.544-0.589c0.899-4.885,5.173-8.594,10.318-8.592c4.17-0.001,7.759,2.436,9.456,5.961
					c0.109,0.229,0.33,0.387,0.581,0.419c0.252,0.032,0.505-0.068,0.668-0.261c1.654-1.959,4.118-3.202,6.879-3.202
					c4.283-0.001,7.859,2.995,8.77,7.003c0.081,0.355,0.403,0.6,0.767,0.583l0.053-0.002c1.45,0.002,2.755,0.587,3.706,1.537
					c0.951,0.952,1.538,2.26,1.538,3.712c0,0.623-0.114,1.22-0.316,1.78c-0.138,0.381,0.05,0.801,0.426,0.951l4,1.602H467.296z"/>
			</g>
		</g>
	</g>
</g>
</svg>
